<svg width="91" height="93" viewBox="0 0 91 93" fill="none" xmlns="http://www.w3.org/2000/svg">
<path d="M10.3908 54.3422L5.11474 57.6997C0.289476 60.7703 -0.724982 67.3891 2.95911 71.7639L4 73L8 78L12.5 84L15.7269 88.6098C15.9087 88.8696 16.0712 89.1424 16.213 89.426C17.3082 91.6164 19.5469 93 21.9958 93H30.8599C33.0145 93 34.9081 91.5717 35.5 89.5L37.5 84.5L40 78.5L44.5 68.5L49.5 59.5L54.5 50.5L59.5 42L65 34L69.5 27.5L76.5 19L81 14L84.5 10.5L89 6L89.6041 5.39593C90.1599 4.8401 90.3833 4.03339 90.1927 3.2708C90.068 2.77218 89.7756 2.33167 89.3644 2.02329L88.4051 1.3038C88.1356 1.10168 87.8484 0.924215 87.5471 0.773561L87.4472 0.723607C86.4955 0.247742 85.446 0 84.382 0H81.2311C80.4134 0 79.5989 0.100273 78.8057 0.298575L76 1L74.001 1.57116C73.0063 1.85533 72.0618 2.29211 71.2012 2.86589L70.1562 3.5625C69.7194 3.85371 69.3062 4.17887 68.9204 4.53497L63.5545 9.48816C63.1854 9.8289 62.8424 10.197 62.5286 10.5892L55 20L47.5 30.5L40 42L34 52L29.5 60L27.7613 63.1296C27.2914 63.9754 26.3999 64.5 25.4323 64.5C25.146 64.5 24.8615 64.4538 24.5898 64.3633L23.6408 64.0469C22.5572 63.6857 21.554 63.1178 20.6869 62.3745L19.1371 61.0461C18.7131 60.6827 18.3203 60.2844 17.9628 59.8554L16 57.5L14 55C13.1536 53.8714 11.581 53.5848 10.3908 54.3422Z" fill="#F8F9FA"/>
</svg>
