<svg width="476" height="337" viewBox="0 0 476 337" fill="none" xmlns="http://www.w3.org/2000/svg">
<path d="M437.5 260H190.5C169.237 260 152 277.237 152 298.5C152 319.763 169.237 337 190.5 337H437.5C458.763 337 476 319.763 476 298.5C476 277.237 458.763 260 437.5 260Z" fill="#F39C12"/>
<path d="M224.895 317H220.278L233.631 280.636H238.176L251.528 317H246.912L236.045 286.389H235.761L224.895 317ZM226.599 302.795H245.207V306.702H226.599V302.795ZM266.923 317.568C264.65 317.568 262.643 316.994 260.903 315.846C259.163 314.686 257.802 313.052 256.82 310.945C255.837 308.826 255.346 306.323 255.346 303.435C255.346 300.57 255.837 298.084 256.82 295.977C257.802 293.87 259.169 292.243 260.921 291.094C262.673 289.946 264.697 289.372 266.994 289.372C268.769 289.372 270.172 289.668 271.202 290.26C272.243 290.84 273.036 291.503 273.581 292.249C274.137 292.982 274.569 293.586 274.877 294.06H275.232V280.636H279.423V317H275.374V312.81H274.877C274.569 313.307 274.131 313.934 273.563 314.692C272.995 315.437 272.184 316.106 271.131 316.698C270.077 317.278 268.674 317.568 266.923 317.568ZM267.491 313.804C269.172 313.804 270.592 313.366 271.752 312.49C272.912 311.602 273.794 310.377 274.398 308.815C275.001 307.24 275.303 305.423 275.303 303.364C275.303 301.328 275.007 299.546 274.415 298.019C273.824 296.48 272.948 295.285 271.788 294.433C270.628 293.568 269.195 293.136 267.491 293.136C265.715 293.136 264.236 293.592 263.052 294.504C261.88 295.403 260.998 296.628 260.406 298.179C259.826 299.718 259.536 301.446 259.536 303.364C259.536 305.305 259.832 307.069 260.424 308.655C261.028 310.229 261.915 311.484 263.087 312.419C264.271 313.342 265.739 313.804 267.491 313.804ZM298.759 317.568C296.296 317.568 294.136 316.982 292.278 315.81C290.431 314.638 288.987 312.999 287.945 310.892C286.915 308.785 286.401 306.323 286.401 303.506C286.401 300.665 286.915 298.185 287.945 296.066C288.987 293.947 290.431 292.302 292.278 291.13C294.136 289.958 296.296 289.372 298.759 289.372C301.221 289.372 303.375 289.958 305.222 291.13C307.08 292.302 308.524 293.947 309.554 296.066C310.596 298.185 311.116 300.665 311.116 303.506C311.116 306.323 310.596 308.785 309.554 310.892C308.524 312.999 307.08 314.638 305.222 315.81C303.375 316.982 301.221 317.568 298.759 317.568ZM298.759 313.804C300.629 313.804 302.168 313.325 303.375 312.366C304.582 311.407 305.476 310.146 306.056 308.584C306.636 307.021 306.926 305.329 306.926 303.506C306.926 301.683 306.636 299.984 306.056 298.41C305.476 296.835 304.582 295.563 303.375 294.592C302.168 293.622 300.629 293.136 298.759 293.136C296.888 293.136 295.349 293.622 294.142 294.592C292.935 295.563 292.041 296.835 291.461 298.41C290.881 299.984 290.591 301.683 290.591 303.506C290.591 305.329 290.881 307.021 291.461 308.584C292.041 310.146 292.935 311.407 294.142 312.366C295.349 313.325 296.888 313.804 298.759 313.804ZM317.513 327.227V289.727H321.561V294.06H322.058C322.366 293.586 322.792 292.982 323.337 292.249C323.893 291.503 324.686 290.84 325.716 290.26C326.758 289.668 328.166 289.372 329.942 289.372C332.238 289.372 334.262 289.946 336.014 291.094C337.766 292.243 339.133 293.87 340.116 295.977C341.098 298.084 341.59 300.57 341.59 303.435C341.59 306.323 341.098 308.826 340.116 310.945C339.133 313.052 337.772 314.686 336.032 315.846C334.292 316.994 332.286 317.568 330.013 317.568C328.261 317.568 326.858 317.278 325.805 316.698C324.751 316.106 323.941 315.437 323.372 314.692C322.804 313.934 322.366 313.307 322.058 312.81H321.703V327.227H317.513ZM321.632 303.364C321.632 305.423 321.934 307.24 322.538 308.815C323.142 310.377 324.023 311.602 325.183 312.49C326.343 313.366 327.764 313.804 329.445 313.804C331.197 313.804 332.659 313.342 333.83 312.419C335.014 311.484 335.902 310.229 336.494 308.655C337.097 307.069 337.399 305.305 337.399 303.364C337.399 301.446 337.103 299.718 336.512 298.179C335.932 296.628 335.05 295.403 333.866 294.504C332.694 293.592 331.22 293.136 329.445 293.136C327.74 293.136 326.308 293.568 325.148 294.433C323.988 295.285 323.112 296.48 322.52 298.019C321.928 299.546 321.632 301.328 321.632 303.364ZM359.843 289.727V293.278H345.709V289.727H359.843ZM349.828 283.193H354.019V309.188C354.019 310.371 354.19 311.259 354.534 311.851C354.889 312.431 355.338 312.821 355.883 313.023C356.439 313.212 357.025 313.307 357.641 313.307C358.102 313.307 358.481 313.283 358.777 313.236C359.073 313.177 359.31 313.129 359.487 313.094L360.34 316.858C360.056 316.964 359.659 317.071 359.15 317.178C358.641 317.296 357.996 317.355 357.215 317.355C356.031 317.355 354.871 317.101 353.735 316.592C352.61 316.083 351.675 315.307 350.929 314.266C350.195 313.224 349.828 311.91 349.828 310.324V283.193ZM374.171 317.639C372.443 317.639 370.875 317.314 369.466 316.663C368.057 316 366.939 315.047 366.11 313.804C365.282 312.549 364.867 311.034 364.867 309.259C364.867 307.696 365.175 306.429 365.791 305.459C366.406 304.476 367.229 303.707 368.259 303.151C369.289 302.594 370.425 302.18 371.668 301.908C372.923 301.624 374.183 301.399 375.45 301.233C377.107 301.02 378.45 300.86 379.48 300.754C380.522 300.635 381.28 300.44 381.753 300.168C382.238 299.895 382.481 299.422 382.481 298.747V298.605C382.481 296.853 382.002 295.492 381.043 294.521C380.096 293.551 378.658 293.065 376.728 293.065C374.728 293.065 373.159 293.503 372.023 294.379C370.887 295.255 370.088 296.19 369.626 297.185L365.649 295.764C366.359 294.107 367.306 292.817 368.49 291.893C369.685 290.958 370.987 290.307 372.396 289.94C373.816 289.562 375.213 289.372 376.586 289.372C377.462 289.372 378.468 289.479 379.605 289.692C380.753 289.893 381.86 290.313 382.925 290.952C384.002 291.592 384.896 292.556 385.606 293.847C386.316 295.137 386.671 296.865 386.671 299.031V317H382.481V313.307H382.268C381.984 313.899 381.51 314.532 380.847 315.207C380.185 315.881 379.303 316.455 378.202 316.929C377.101 317.402 375.758 317.639 374.171 317.639ZM374.811 313.875C376.468 313.875 377.865 313.549 379.001 312.898C380.149 312.247 381.013 311.407 381.593 310.377C382.185 309.347 382.481 308.264 382.481 307.128V303.293C382.303 303.506 381.913 303.701 381.309 303.879C380.717 304.044 380.031 304.192 379.249 304.322C378.48 304.441 377.728 304.547 376.994 304.642C376.272 304.725 375.686 304.796 375.237 304.855C374.148 304.997 373.13 305.228 372.183 305.548C371.248 305.855 370.49 306.323 369.91 306.95C369.342 307.566 369.058 308.406 369.058 309.472C369.058 310.928 369.596 312.028 370.673 312.774C371.762 313.508 373.142 313.875 374.811 313.875ZM394.32 317V289.727H398.368V293.847H398.652C399.149 292.497 400.049 291.402 401.351 290.562C402.653 289.721 404.121 289.301 405.754 289.301C406.062 289.301 406.447 289.307 406.908 289.319C407.37 289.331 407.719 289.348 407.956 289.372V293.634C407.814 293.598 407.488 293.545 406.979 293.474C406.482 293.391 405.955 293.349 405.399 293.349C404.073 293.349 402.89 293.628 401.848 294.184C400.818 294.728 400.001 295.486 399.398 296.457C398.806 297.415 398.51 298.51 398.51 299.741V317H394.32Z" fill="black"/>
<path d="M267.784 246.493C263.346 216.211 232.674 197.249 203.602 206.816L198.962 208.343C187.598 212.083 175.256 211.514 164.284 206.745C146.478 199.006 134.96 181.441 134.96 162.026V159.347C134.96 141.954 143.518 125.675 157.846 115.815L169.942 107.491C191.163 92.8861 194.123 62.6909 176.141 44.2437C156.075 23.6593 121.672 29.1731 109.044 54.9974L100 73.4938" stroke="#F8F9FA"/>
<path d="M268.337 255.541L259.677 245.791H276.997L268.337 255.541Z" fill="#F8F9FA"/>
<path d="M6.45641 100.438V107H4.78027V92.4545H6.45641V97.7955H6.59846C6.85414 97.232 7.23766 96.7846 7.74902 96.4531C8.26512 96.117 8.95168 95.9489 9.80868 95.9489C10.5521 95.9489 11.2031 96.098 11.7618 96.3963C12.3205 96.6899 12.7538 97.142 13.0615 97.7528C13.374 98.3589 13.5303 99.1307 13.5303 100.068V107H11.8541V100.182C11.8541 99.3153 11.6292 98.6454 11.1794 98.1719C10.7344 97.6937 10.1165 97.4545 9.32573 97.4545C8.77649 97.4545 8.28406 97.5705 7.84846 97.8026C7.41759 98.0346 7.07668 98.3731 6.82573 98.8182C6.57952 99.2633 6.45641 99.803 6.45641 100.438ZM19.8069 107.256C19.1156 107.256 18.4883 107.125 17.9248 106.865C17.3614 106.6 16.9139 106.219 16.5825 105.722C16.251 105.22 16.0853 104.614 16.0853 103.903C16.0853 103.278 16.2084 102.772 16.4546 102.384C16.7009 101.991 17.0299 101.683 17.4419 101.46C17.8538 101.238 18.3083 101.072 18.8055 100.963C19.3074 100.849 19.8117 100.759 20.3183 100.693C20.9812 100.608 21.5186 100.544 21.9305 100.501C22.3472 100.454 22.6502 100.376 22.8396 100.267C23.0337 100.158 23.1308 99.9687 23.1308 99.6989V99.642C23.1308 98.9413 22.939 98.3968 22.5555 98.0085C22.1767 97.6203 21.6014 97.4261 20.8296 97.4261C20.0295 97.4261 19.4021 97.6013 18.9475 97.9517C18.493 98.3021 18.1734 98.6761 17.9887 99.0739L16.3978 98.5057C16.6819 97.8428 17.0607 97.3267 17.5342 96.9574C18.0124 96.5833 18.5332 96.3229 19.0967 96.1761C19.6649 96.0246 20.2236 95.9489 20.7728 95.9489C21.1232 95.9489 21.5257 95.9915 21.9802 96.0767C22.4395 96.1572 22.8822 96.3253 23.3083 96.581C23.7392 96.8366 24.0967 97.2225 24.3808 97.7386C24.6649 98.2547 24.8069 98.946 24.8069 99.8125V107H23.1308V105.523H23.0456C22.9319 105.759 22.7425 106.013 22.4774 106.283C22.2122 106.553 21.8595 106.782 21.4191 106.972C20.9788 107.161 20.4414 107.256 19.8069 107.256ZM20.0626 105.75C20.7255 105.75 21.2842 105.62 21.7387 105.359C22.198 105.099 22.5437 104.763 22.7757 104.351C23.0124 103.939 23.1308 103.506 23.1308 103.051V101.517C23.0598 101.602 22.9035 101.68 22.662 101.751C22.4253 101.818 22.1507 101.877 21.8382 101.929C21.5304 101.976 21.2297 102.019 20.9362 102.057C20.6474 102.09 20.413 102.118 20.2331 102.142C19.7974 102.199 19.3903 102.291 19.0115 102.419C18.6374 102.542 18.3344 102.729 18.1024 102.98C17.8751 103.226 17.7615 103.562 17.7615 103.989C17.7615 104.571 17.9769 105.011 18.4078 105.31C18.8434 105.603 19.395 105.75 20.0626 105.75ZM32.2696 111.318C31.46 111.318 30.7639 111.214 30.1816 111.006C29.5992 110.802 29.1139 110.532 28.7256 110.196C28.3421 109.865 28.0367 109.509 27.8094 109.131L29.1446 108.193C29.2961 108.392 29.4879 108.619 29.7199 108.875C29.9519 109.135 30.2692 109.36 30.6716 109.55C31.0788 109.744 31.6115 109.841 32.2696 109.841C33.1503 109.841 33.8771 109.628 34.45 109.202C35.0229 108.776 35.3094 108.108 35.3094 107.199V104.983H35.1674C35.0443 105.182 34.8691 105.428 34.6418 105.722C34.4193 106.01 34.0973 106.268 33.6759 106.496C33.2592 106.718 32.6958 106.83 31.9855 106.83C31.1049 106.83 30.3141 106.621 29.6134 106.205C28.9174 105.788 28.3657 105.182 27.9586 104.386C27.5561 103.591 27.3549 102.625 27.3549 101.489C27.3549 100.371 27.5514 99.3982 27.9443 98.5696C28.3373 97.7363 28.8842 97.0923 29.585 96.6378C30.2857 96.1785 31.0954 95.9489 32.0139 95.9489C32.7242 95.9489 33.2876 96.0672 33.7043 96.304C34.1257 96.536 34.4477 96.8011 34.6702 97.0994C34.8975 97.393 35.0727 97.6345 35.1958 97.8239H35.3662V96.0909H36.9855V107.312C36.9855 108.25 36.7725 109.012 36.3463 109.599C35.9249 110.191 35.3568 110.625 34.6418 110.899C33.9316 111.179 33.1408 111.318 32.2696 111.318ZM32.2128 105.324C32.8852 105.324 33.4533 105.17 33.9174 104.862C34.3814 104.554 34.7341 104.112 34.9756 103.534C35.2171 102.956 35.3378 102.265 35.3378 101.46C35.3378 100.674 35.2194 99.9806 34.9827 99.3793C34.746 98.7779 34.3956 98.3068 33.9316 97.9659C33.4675 97.625 32.8946 97.4545 32.2128 97.4545C31.5026 97.4545 30.9107 97.6345 30.4372 97.9943C29.9685 98.3542 29.6157 98.8371 29.379 99.4432C29.147 100.049 29.031 100.722 29.031 101.46C29.031 102.218 29.1494 102.888 29.3861 103.47C29.6276 104.048 29.9827 104.502 30.4514 104.834C30.9249 105.161 31.5121 105.324 32.2128 105.324ZM43.2639 107.256C42.5727 107.256 41.9453 107.125 41.3818 106.865C40.8184 106.6 40.371 106.219 40.0395 105.722C39.7081 105.22 39.5424 104.614 39.5424 103.903C39.5424 103.278 39.6655 102.772 39.9117 102.384C40.1579 101.991 40.487 101.683 40.8989 101.46C41.3108 101.238 41.7654 101.072 42.2625 100.963C42.7644 100.849 43.2687 100.759 43.7753 100.693C44.4382 100.608 44.9756 100.544 45.3875 100.501C45.8042 100.454 46.1072 100.376 46.2966 100.267C46.4907 100.158 46.5878 99.9687 46.5878 99.6989V99.642C46.5878 98.9413 46.3961 98.3968 46.0125 98.0085C45.6337 97.6203 45.0585 97.4261 44.2867 97.4261C43.4865 97.4261 42.8591 97.6013 42.4046 97.9517C41.95 98.3021 41.6304 98.6761 41.4458 99.0739L39.8549 98.5057C40.1389 97.8428 40.5177 97.3267 40.9912 96.9574C41.4694 96.5833 41.9903 96.3229 42.5537 96.1761C43.1219 96.0246 43.6806 95.9489 44.2299 95.9489C44.5802 95.9489 44.9827 95.9915 45.4372 96.0767C45.8965 96.1572 46.3392 96.3253 46.7654 96.581C47.1962 96.8366 47.5537 97.2225 47.8378 97.7386C48.1219 98.2547 48.2639 98.946 48.2639 99.8125V107H46.5878V105.523H46.5026C46.3889 105.759 46.1996 106.013 45.9344 106.283C45.6693 106.553 45.3165 106.782 44.8762 106.972C44.4358 107.161 43.8984 107.256 43.2639 107.256ZM43.5196 105.75C44.1825 105.75 44.7412 105.62 45.1958 105.359C45.655 105.099 46.0007 104.763 46.2327 104.351C46.4694 103.939 46.5878 103.506 46.5878 103.051V101.517C46.5168 101.602 46.3605 101.68 46.1191 101.751C45.8823 101.818 45.6077 101.877 45.2952 101.929C44.9874 101.976 44.6868 102.019 44.3932 102.057C44.1044 102.09 43.87 102.118 43.6901 102.142C43.2545 102.199 42.8473 102.291 42.4685 102.419C42.0944 102.542 41.7914 102.729 41.5594 102.98C41.3321 103.226 41.2185 103.562 41.2185 103.989C41.2185 104.571 41.4339 105.011 41.8648 105.31C42.3004 105.603 42.852 105.75 43.5196 105.75ZM61.3801 107.227C60.3573 107.227 59.4767 106.986 58.738 106.503C57.9994 106.02 57.4312 105.355 57.0335 104.507C56.6358 103.66 56.4369 102.691 56.4369 101.602C56.4369 100.494 56.6405 99.5166 57.0477 98.669C57.4596 97.8168 58.0325 97.1515 58.7664 96.6733C59.5051 96.1903 60.3668 95.9489 61.3517 95.9489C62.1187 95.9489 62.81 96.0909 63.4255 96.375C64.0411 96.6591 64.5453 97.0568 64.9383 97.5682C65.3313 98.0795 65.5751 98.6761 65.6698 99.358H63.9937C63.8659 98.8608 63.5818 98.4205 63.1414 98.0369C62.7058 97.6487 62.1187 97.4545 61.3801 97.4545C60.7267 97.4545 60.1537 97.625 59.6613 97.9659C59.1736 98.3021 58.7925 98.7779 58.5179 99.3935C58.248 100.004 58.113 100.722 58.113 101.545C58.113 102.388 58.2456 103.122 58.5108 103.747C58.7806 104.372 59.1594 104.857 59.6471 105.203C60.1395 105.549 60.7172 105.722 61.3801 105.722C61.8157 105.722 62.211 105.646 62.5662 105.494C62.9213 105.343 63.2219 105.125 63.4681 104.841C63.7144 104.557 63.8895 104.216 63.9937 103.818H65.6698C65.5751 104.462 65.3408 105.042 64.9667 105.558C64.5974 106.07 64.1073 106.477 63.4965 106.78C62.8905 107.078 62.185 107.227 61.3801 107.227ZM69.7963 92.4545V107H68.1201V92.4545H69.7963ZM72.8662 107V96.0909H74.5424V107H72.8662ZM73.7185 94.2727C73.3918 94.2727 73.1101 94.1615 72.8733 93.9389C72.6413 93.7164 72.5253 93.4489 72.5253 93.1364C72.5253 92.8239 72.6413 92.5563 72.8733 92.3338C73.1101 92.1113 73.3918 92 73.7185 92C74.0452 92 74.3246 92.1113 74.5566 92.3338C74.7933 92.5563 74.9117 92.8239 74.9117 93.1364C74.9117 93.4489 74.7933 93.7164 74.5566 93.9389C74.3246 94.1615 74.0452 94.2727 73.7185 94.2727ZM82.0441 107.227C81.0214 107.227 80.1407 106.986 79.4021 106.503C78.6635 106.02 78.0953 105.355 77.6975 104.507C77.2998 103.66 77.101 102.691 77.101 101.602C77.101 100.494 77.3046 99.5166 77.7117 98.669C78.1237 97.8168 78.6966 97.1515 79.4305 96.6733C80.1691 96.1903 81.0309 95.9489 82.0157 95.9489C82.7828 95.9489 83.4741 96.0909 84.0896 96.375C84.7051 96.6591 85.2094 97.0568 85.6024 97.5682C85.9954 98.0795 86.2392 98.6761 86.3339 99.358H84.6578C84.5299 98.8608 84.2458 98.4205 83.8055 98.0369C83.3699 97.6487 82.7828 97.4545 82.0441 97.4545C81.3907 97.4545 80.8178 97.625 80.3254 97.9659C79.8377 98.3021 79.4565 98.7779 79.1819 99.3935C78.912 100.004 78.7771 100.722 78.7771 101.545C78.7771 102.388 78.9097 103.122 79.1748 103.747C79.4447 104.372 79.8235 104.857 80.3112 105.203C80.8036 105.549 81.3813 105.722 82.0441 105.722C82.4797 105.722 82.8751 105.646 83.2302 105.494C83.5853 105.343 83.886 105.125 84.1322 104.841C84.3784 104.557 84.5536 104.216 84.6578 103.818H86.3339C86.2392 104.462 86.0048 105.042 85.6308 105.558C85.2615 106.07 84.7714 106.477 84.1606 106.78C83.5546 107.078 82.8491 107.227 82.0441 107.227ZM90.3467 103.023L90.3183 100.949H90.6592L95.4319 96.0909H97.5058L92.4206 101.233H92.2785L90.3467 103.023ZM88.7842 107V92.4545H90.4603V107H88.7842ZM95.716 107L91.4546 101.602L92.6478 100.438L97.8467 107H95.716ZM45.1256 131.227C44.0745 131.227 43.1678 130.995 42.4055 130.531C41.6479 130.062 41.0631 129.409 40.6512 128.571C40.244 127.728 40.0404 126.748 40.0404 125.631C40.0404 124.513 40.244 123.528 40.6512 122.676C41.0631 121.819 41.636 121.152 42.37 120.673C43.1086 120.19 43.9703 119.949 44.9552 119.949C45.5234 119.949 46.0844 120.044 46.6384 120.233C47.1924 120.422 47.6967 120.73 48.1512 121.156C48.6057 121.578 48.968 122.136 49.2378 122.832C49.5077 123.528 49.6427 124.385 49.6427 125.403V126.114H41.2336V124.665H47.9381C47.9381 124.049 47.815 123.5 47.5688 123.017C47.3273 122.534 46.9817 122.153 46.5319 121.874C46.0868 121.594 45.5612 121.455 44.9552 121.455C44.2876 121.455 43.7099 121.62 43.2222 121.952C42.7393 122.278 42.3676 122.705 42.1072 123.23C41.8468 123.756 41.7165 124.319 41.7165 124.92V125.886C41.7165 126.71 41.8586 127.409 42.1427 127.982C42.4315 128.55 42.8316 128.983 43.343 129.281C43.8543 129.575 44.4485 129.722 45.1256 129.722C45.566 129.722 45.9637 129.66 46.3188 129.537C46.6787 129.409 46.9888 129.22 47.2492 128.969C47.5096 128.713 47.7109 128.396 47.8529 128.017L49.4722 128.472C49.3018 129.021 49.0153 129.504 48.6128 129.92C48.2104 130.332 47.7132 130.654 47.1214 130.886C46.5295 131.114 45.8643 131.227 45.1256 131.227ZM53.8685 124.438V131H52.1924V120.091H53.8117V121.795H53.9538C54.2094 121.241 54.5977 120.796 55.1185 120.46C55.6394 120.119 56.3117 119.949 57.1356 119.949C57.8742 119.949 58.5205 120.1 59.0745 120.403C59.6285 120.702 60.0593 121.156 60.3671 121.767C60.6749 122.373 60.8288 123.14 60.8288 124.068V131H59.1526V124.182C59.1526 123.325 58.9301 122.657 58.485 122.179C58.0399 121.696 57.4291 121.455 56.6526 121.455C56.1176 121.455 55.6394 121.571 55.218 121.803C54.8013 122.035 54.4722 122.373 54.2307 122.818C53.9893 123.263 53.8685 123.803 53.8685 124.438ZM9.78826 145V143.722C9.78826 143.333 9.85692 142.921 9.99423 142.486C10.1363 142.045 10.3399 141.622 10.605 141.214C10.8749 140.803 11.1993 140.445 11.578 140.142L12.4871 140.881C12.1888 141.307 11.9284 141.752 11.7059 142.216C11.4881 142.675 11.3792 143.168 11.3792 143.693V145H9.78826ZM13.4246 145V143.722C13.4246 143.333 13.4933 142.921 13.6306 142.486C13.7726 142.045 13.9762 141.622 14.2414 141.214C14.5113 140.803 14.8356 140.445 15.2144 140.142L16.1235 140.881C15.8252 141.307 15.5648 141.752 15.3423 142.216C15.1244 142.675 15.0155 143.168 15.0155 143.693V145H13.4246ZM21.1839 155.256C20.4926 155.256 19.8652 155.125 19.3018 154.865C18.7383 154.6 18.2909 154.219 17.9594 153.722C17.628 153.22 17.4623 152.614 17.4623 151.903C17.4623 151.278 17.5854 150.772 17.8316 150.384C18.0778 149.991 18.4069 149.683 18.8188 149.46C19.2307 149.238 19.6853 149.072 20.1825 148.963C20.6843 148.849 21.1886 148.759 21.6952 148.693C22.3581 148.608 22.8955 148.544 23.3075 148.501C23.7241 148.454 24.0271 148.376 24.2165 148.267C24.4107 148.158 24.5077 147.969 24.5077 147.699V147.642C24.5077 146.941 24.316 146.397 23.9325 146.009C23.5537 145.62 22.9784 145.426 22.2066 145.426C21.4064 145.426 20.779 145.601 20.3245 145.952C19.87 146.302 19.5503 146.676 19.3657 147.074L17.7748 146.506C18.0589 145.843 18.4377 145.327 18.9111 144.957C19.3894 144.583 19.9102 144.323 20.4736 144.176C21.0418 144.025 21.6005 143.949 22.1498 143.949C22.5002 143.949 22.9026 143.991 23.3572 144.077C23.8164 144.157 24.2592 144.325 24.6853 144.581C25.1162 144.837 25.4736 145.223 25.7577 145.739C26.0418 146.255 26.1839 146.946 26.1839 147.812V155H24.5077V153.523H24.4225C24.3089 153.759 24.1195 154.013 23.8543 154.283C23.5892 154.553 23.2364 154.782 22.7961 154.972C22.3557 155.161 21.8183 155.256 21.1839 155.256ZM21.4396 153.75C22.1024 153.75 22.6611 153.62 23.1157 153.359C23.575 153.099 23.9206 152.763 24.1526 152.351C24.3894 151.939 24.5077 151.506 24.5077 151.051V149.517C24.4367 149.602 24.2805 149.68 24.039 149.751C23.8022 149.818 23.5276 149.877 23.2151 149.929C22.9074 149.976 22.6067 150.019 22.3131 150.057C22.0243 150.09 21.7899 150.118 21.61 150.142C21.1744 150.199 20.7672 150.291 20.3884 150.419C20.0144 150.542 19.7113 150.729 19.4793 150.98C19.2521 151.226 19.1384 151.562 19.1384 151.989C19.1384 152.571 19.3539 153.011 19.7847 153.31C20.2203 153.603 20.7719 153.75 21.4396 153.75ZM33.3625 155.227C32.4534 155.227 31.6508 154.998 30.9548 154.538C30.2588 154.074 29.7143 153.421 29.3213 152.578C28.9283 151.731 28.7318 150.729 28.7318 149.574C28.7318 148.428 28.9283 147.434 29.3213 146.591C29.7143 145.748 30.2612 145.097 30.9619 144.638C31.6627 144.179 32.4723 143.949 33.3909 143.949C34.1011 143.949 34.6622 144.067 35.0741 144.304C35.4908 144.536 35.808 144.801 36.0258 145.099C36.2484 145.393 36.4212 145.634 36.5443 145.824H36.6864V140.455H38.3625V155H36.7432V153.324H36.5443C36.4212 153.523 36.246 153.774 36.0187 154.077C35.7915 154.375 35.4671 154.643 35.0457 154.879C34.6243 155.111 34.0633 155.227 33.3625 155.227ZM33.5898 153.722C34.2621 153.722 34.8303 153.546 35.2943 153.196C35.7583 152.841 36.1111 152.351 36.3526 151.726C36.594 151.096 36.7148 150.369 36.7148 149.545C36.7148 148.731 36.5964 148.018 36.3597 147.408C36.1229 146.792 35.7725 146.314 35.3085 145.973C34.8445 145.627 34.2716 145.455 33.5898 145.455C32.8795 145.455 32.2877 145.637 31.8142 146.001C31.3454 146.361 30.9927 146.851 30.756 147.472C30.524 148.087 30.4079 148.778 30.4079 149.545C30.4079 150.322 30.5263 151.027 30.7631 151.662C31.0045 152.292 31.3597 152.794 31.8284 153.168C32.3019 153.537 32.889 153.722 33.5898 153.722ZM46.0969 155.227C45.112 155.227 44.2479 154.993 43.5045 154.524C42.7659 154.055 42.1883 153.4 41.7716 152.557C41.3597 151.714 41.1537 150.729 41.1537 149.602C41.1537 148.466 41.3597 147.474 41.7716 146.626C42.1883 145.779 42.7659 145.121 43.5045 144.652C44.2479 144.183 45.112 143.949 46.0969 143.949C47.0817 143.949 47.9435 144.183 48.6821 144.652C49.4255 145.121 50.0031 145.779 50.4151 146.626C50.8317 147.474 51.0401 148.466 51.0401 149.602C51.0401 150.729 50.8317 151.714 50.4151 152.557C50.0031 153.4 49.4255 154.055 48.6821 154.524C47.9435 154.993 47.0817 155.227 46.0969 155.227ZM46.0969 153.722C46.845 153.722 47.4605 153.53 47.9435 153.146C48.4264 152.763 48.7839 152.259 49.0159 151.634C49.2479 151.009 49.3639 150.331 49.3639 149.602C49.3639 148.873 49.2479 148.194 49.0159 147.564C48.7839 146.934 48.4264 146.425 47.9435 146.037C47.4605 145.649 46.845 145.455 46.0969 145.455C45.3488 145.455 44.7332 145.649 44.2503 146.037C43.7673 146.425 43.4098 146.934 43.1778 147.564C42.9458 148.194 42.8298 148.873 42.8298 149.602C42.8298 150.331 42.9458 151.009 43.1778 151.634C43.4098 152.259 43.7673 152.763 44.2503 153.146C44.7332 153.53 45.3488 153.722 46.0969 153.722ZM53.5986 159.091V144.091H55.218V145.824H55.4168C55.5399 145.634 55.7104 145.393 55.9282 145.099C56.1507 144.801 56.468 144.536 56.8799 144.304C57.2966 144.067 57.86 143.949 58.5702 143.949C59.4888 143.949 60.2985 144.179 60.9992 144.638C61.7 145.097 62.2468 145.748 62.6398 146.591C63.0328 147.434 63.2293 148.428 63.2293 149.574C63.2293 150.729 63.0328 151.731 62.6398 152.578C62.2468 153.421 61.7023 154.074 61.0063 154.538C60.3103 154.998 59.5077 155.227 58.5986 155.227C57.8979 155.227 57.3368 155.111 56.9154 154.879C56.494 154.643 56.1697 154.375 55.9424 154.077C55.7151 153.774 55.5399 153.523 55.4168 153.324H55.2748V159.091H53.5986ZM55.2464 149.545C55.2464 150.369 55.3671 151.096 55.6086 151.726C55.8501 152.351 56.2028 152.841 56.6668 153.196C57.1308 153.546 57.699 153.722 58.3714 153.722C59.0721 153.722 59.6569 153.537 60.1256 153.168C60.5991 152.794 60.9542 152.292 61.191 151.662C61.4325 151.027 61.5532 150.322 61.5532 149.545C61.5532 148.778 61.4348 148.087 61.1981 147.472C60.9661 146.851 60.6133 146.361 60.1398 146.001C59.6711 145.637 59.0816 145.455 58.3714 145.455C57.6896 145.455 57.1166 145.627 56.6526 145.973C56.1886 146.314 55.8382 146.792 55.6015 147.408C55.3647 148.018 55.2464 148.731 55.2464 149.545ZM70.5305 144.091V145.511H64.8771V144.091H70.5305ZM66.5248 141.477H68.2009V151.875C68.2009 152.348 68.2696 152.704 68.4069 152.94C68.5489 153.172 68.7289 153.329 68.9467 153.409C69.1692 153.485 69.4036 153.523 69.6498 153.523C69.8344 153.523 69.986 153.513 70.1043 153.494C70.2227 153.471 70.3174 153.452 70.3884 153.438L70.7293 154.943C70.6157 154.986 70.4571 155.028 70.2535 155.071C70.0499 155.118 69.7918 155.142 69.4793 155.142C69.0058 155.142 68.5418 155.04 68.0873 154.837C67.6375 154.633 67.2634 154.323 66.9651 153.906C66.6716 153.49 66.5248 152.964 66.5248 152.33V141.477ZM76.262 155.256C75.5707 155.256 74.9433 155.125 74.3799 154.865C73.8164 154.6 73.369 154.219 73.0376 153.722C72.7061 153.22 72.5404 152.614 72.5404 151.903C72.5404 151.278 72.6635 150.772 72.9097 150.384C73.1559 149.991 73.485 149.683 73.8969 149.46C74.3089 149.238 74.7634 149.072 75.2606 148.963C75.7625 148.849 76.2667 148.759 76.7734 148.693C77.4362 148.608 77.9736 148.544 78.3856 148.501C78.8022 148.454 79.1053 148.376 79.2947 148.267C79.4888 148.158 79.5859 147.969 79.5859 147.699V147.642C79.5859 146.941 79.3941 146.397 79.0106 146.009C78.6318 145.62 78.0565 145.426 77.2847 145.426C76.4845 145.426 75.8572 145.601 75.4026 145.952C74.9481 146.302 74.6285 146.676 74.4438 147.074L72.8529 146.506C73.137 145.843 73.5158 145.327 73.9893 144.957C74.4675 144.583 74.9883 144.323 75.5518 144.176C76.12 144.025 76.6787 143.949 77.2279 143.949C77.5783 143.949 77.9807 143.991 78.4353 144.077C78.8946 144.157 79.3373 144.325 79.7634 144.581C80.1943 144.837 80.5518 145.223 80.8359 145.739C81.12 146.255 81.262 146.946 81.262 147.812V155H79.5859V153.523H79.5006C79.387 153.759 79.1976 154.013 78.9325 154.283C78.6673 154.553 78.3146 154.782 77.8742 154.972C77.4339 155.161 76.8965 155.256 76.262 155.256ZM76.5177 153.75C77.1806 153.75 77.7393 153.62 78.1938 153.359C78.6531 153.099 78.9987 152.763 79.2307 152.351C79.4675 151.939 79.5859 151.506 79.5859 151.051V149.517C79.5148 149.602 79.3586 149.68 79.1171 149.751C78.8804 149.818 78.6057 149.877 78.2932 149.929C77.9855 149.976 77.6848 150.019 77.3913 150.057C77.1024 150.09 76.8681 150.118 76.6881 150.142C76.2525 150.199 75.8453 150.291 75.4665 150.419C75.0925 150.542 74.7895 150.729 74.5575 150.98C74.3302 151.226 74.2165 151.562 74.2165 151.989C74.2165 152.571 74.432 153.011 74.8628 153.31C75.2985 153.603 75.8501 153.75 76.5177 153.75ZM84.3213 155V144.091H85.9406V145.739H86.0543C86.2531 145.199 86.613 144.761 87.1338 144.425C87.6546 144.089 88.2418 143.92 88.8952 143.92C89.0183 143.92 89.1722 143.923 89.3568 143.928C89.5415 143.932 89.6811 143.939 89.7758 143.949V145.653C89.719 145.639 89.5888 145.618 89.3852 145.589C89.1864 145.556 88.9757 145.54 88.7531 145.54C88.2228 145.54 87.7493 145.651 87.3327 145.874C86.9207 146.091 86.594 146.394 86.3526 146.783C86.1158 147.166 85.9974 147.604 85.9974 148.097V155H84.3213ZM93.572 140.455V141.733C93.572 142.121 93.501 142.536 93.3589 142.976C93.2216 143.411 93.018 143.835 92.7481 144.247C92.483 144.654 92.161 145.009 91.7822 145.312L90.8731 144.574C91.1714 144.148 91.4295 143.705 91.6473 143.246C91.8698 142.782 91.9811 142.287 91.9811 141.761V140.455H93.572ZM97.2084 140.455V141.733C97.2084 142.121 97.1374 142.536 96.9953 142.976C96.858 143.411 96.6544 143.835 96.3845 144.247C96.1194 144.654 95.7974 145.009 95.4186 145.312L94.5095 144.574C94.8078 144.148 95.0659 143.705 95.2837 143.246C95.5062 142.782 95.6175 142.287 95.6175 141.761V140.455H97.2084Z" fill="#F8F9FA"/>
<path d="M388.515 30.6364V123H377.33V42.3622H376.789L354.24 57.3352V45.9702L377.33 30.6364H388.515Z" fill="#F8F9FA"/>
<path d="M455 79.5C455 120.645 421.645 154 380.5 154C339.355 154 306 120.645 306 79.5C306 38.3548 339.355 5 380.5 5C421.645 5 455 38.3548 455 79.5Z" stroke="#F8F9FA"/>
<path d="M27.9366 183.227C27.0275 183.227 26.225 182.998 25.5289 182.538C24.8329 182.074 24.2884 181.421 23.8954 180.578C23.5024 179.731 23.3059 178.729 23.3059 177.574C23.3059 176.428 23.5024 175.434 23.8954 174.591C24.2884 173.748 24.8353 173.097 25.536 172.638C26.2368 172.179 27.0465 171.949 27.965 171.949C28.6752 171.949 29.2363 172.067 29.6483 172.304C30.0649 172.536 30.3822 172.801 30.6 173.099C30.8225 173.393 30.9953 173.634 31.1184 173.824H31.2605V168.455H32.9366V183H31.3173V181.324H31.1184C30.9953 181.523 30.8201 181.774 30.5929 182.077C30.3656 182.375 30.0413 182.643 29.6199 182.879C29.1984 183.111 28.6374 183.227 27.9366 183.227ZM28.1639 181.722C28.8362 181.722 29.4044 181.546 29.8684 181.196C30.3324 180.841 30.6852 180.351 30.9267 179.726C31.1681 179.096 31.2889 178.369 31.2889 177.545C31.2889 176.731 31.1705 176.018 30.9338 175.408C30.697 174.792 30.3467 174.314 29.8826 173.973C29.4186 173.627 28.8457 173.455 28.1639 173.455C27.4537 173.455 26.8618 173.637 26.3883 174.001C25.9196 174.361 25.5668 174.851 25.3301 175.472C25.0981 176.087 24.9821 176.778 24.9821 177.545C24.9821 178.322 25.1004 179.027 25.3372 179.662C25.5787 180.292 25.9338 180.794 26.4025 181.168C26.876 181.537 27.4631 181.722 28.1639 181.722ZM40.813 183.227C39.7619 183.227 38.8552 182.995 38.0929 182.531C37.3353 182.062 36.7505 181.409 36.3386 180.571C35.9314 179.728 35.7278 178.748 35.7278 177.631C35.7278 176.513 35.9314 175.528 36.3386 174.676C36.7505 173.819 37.3234 173.152 38.0574 172.673C38.796 172.19 39.6577 171.949 40.6426 171.949C41.2108 171.949 41.7718 172.044 42.3258 172.233C42.8798 172.422 43.3841 172.73 43.8386 173.156C44.2931 173.578 44.6554 174.136 44.9252 174.832C45.1951 175.528 45.3301 176.385 45.3301 177.403V178.114H36.921V176.665H43.6255C43.6255 176.049 43.5024 175.5 43.2562 175.017C43.0147 174.534 42.6691 174.153 42.2193 173.874C41.7742 173.594 41.2486 173.455 40.6426 173.455C39.975 173.455 39.3973 173.62 38.9096 173.952C38.4267 174.278 38.055 174.705 37.7946 175.23C37.5342 175.756 37.4039 176.319 37.4039 176.92V177.886C37.4039 178.71 37.546 179.409 37.8301 179.982C38.1189 180.55 38.519 180.983 39.0304 181.281C39.5417 181.575 40.1359 181.722 40.813 181.722C41.2534 181.722 41.6511 181.66 42.0062 181.537C42.3661 181.409 42.6762 181.22 42.9366 180.969C43.197 180.713 43.3983 180.396 43.5403 180.017L45.1596 180.472C44.9892 181.021 44.7027 181.504 44.3002 181.92C43.8978 182.332 43.4006 182.654 42.8088 182.886C42.2169 183.114 41.5517 183.227 40.813 183.227ZM48.1071 183V168.455H49.7832V173.824H49.9252C50.0484 173.634 50.2188 173.393 50.4366 173.099C50.6592 172.801 50.9764 172.536 51.3883 172.304C51.805 172.067 52.3684 171.949 53.0787 171.949C53.9972 171.949 54.8069 172.179 55.5076 172.638C56.2084 173.097 56.7553 173.748 57.1483 174.591C57.5413 175.434 57.7377 176.428 57.7377 177.574C57.7377 178.729 57.5413 179.731 57.1483 180.578C56.7553 181.421 56.2108 182.074 55.5147 182.538C54.8187 182.998 54.0162 183.227 53.1071 183.227C52.4063 183.227 51.8452 183.111 51.4238 182.879C51.0024 182.643 50.6781 182.375 50.4508 182.077C50.2235 181.774 50.0484 181.523 49.9252 181.324H49.7264V183H48.1071ZM49.7548 177.545C49.7548 178.369 49.8755 179.096 50.117 179.726C50.3585 180.351 50.7112 180.841 51.1752 181.196C51.6393 181.546 52.2074 181.722 52.8798 181.722C53.5806 181.722 54.1653 181.537 54.6341 181.168C55.1075 180.794 55.4627 180.292 55.6994 179.662C55.9409 179.027 56.0616 178.322 56.0616 177.545C56.0616 176.778 55.9432 176.087 55.7065 175.472C55.4745 174.851 55.1217 174.361 54.6483 174.001C54.1795 173.637 53.59 173.455 52.8798 173.455C52.198 173.455 51.6251 173.627 51.161 173.973C50.697 174.314 50.3467 174.792 50.1099 175.408C49.8732 176.018 49.7548 176.731 49.7548 177.545ZM63.5119 183.256C62.8206 183.256 62.1932 183.125 61.6298 182.865C61.0663 182.6 60.6189 182.219 60.2875 181.722C59.956 181.22 59.7903 180.614 59.7903 179.903C59.7903 179.278 59.9134 178.772 60.1596 178.384C60.4058 177.991 60.7349 177.683 61.1468 177.46C61.5588 177.238 62.0133 177.072 62.5105 176.963C63.0124 176.849 63.5166 176.759 64.0233 176.693C64.6861 176.608 65.2235 176.544 65.6355 176.501C66.0521 176.454 66.3552 176.376 66.5446 176.267C66.7387 176.158 66.8358 175.969 66.8358 175.699V175.642C66.8358 174.941 66.644 174.397 66.2605 174.009C65.8817 173.62 65.3064 173.426 64.5346 173.426C63.7344 173.426 63.1071 173.601 62.6525 173.952C62.198 174.302 61.8784 174.676 61.6937 175.074L60.1028 174.506C60.3869 173.843 60.7657 173.327 61.2392 172.957C61.7174 172.583 62.2382 172.323 62.8017 172.176C63.3699 172.025 63.9286 171.949 64.4778 171.949C64.8282 171.949 65.2306 171.991 65.6852 172.077C66.1445 172.157 66.5872 172.325 67.0133 172.581C67.4442 172.837 67.8017 173.223 68.0858 173.739C68.3699 174.255 68.5119 174.946 68.5119 175.812V183H66.8358V181.523H66.7505C66.6369 181.759 66.4475 182.013 66.1824 182.283C65.9172 182.553 65.5645 182.782 65.1241 182.972C64.6838 183.161 64.1464 183.256 63.5119 183.256ZM63.7676 181.75C64.4305 181.75 64.9892 181.62 65.4437 181.359C65.903 181.099 66.2486 180.763 66.4806 180.351C66.7174 179.939 66.8358 179.506 66.8358 179.051V177.517C66.7647 177.602 66.6085 177.68 66.367 177.751C66.1303 177.818 65.8556 177.877 65.5431 177.929C65.2354 177.976 64.9347 178.019 64.6412 178.057C64.3523 178.09 64.118 178.118 63.938 178.142C63.5024 178.199 63.0952 178.291 62.7164 178.419C62.3424 178.542 62.0394 178.729 61.8074 178.98C61.5801 179.226 61.4664 179.562 61.4664 179.989C61.4664 180.571 61.6819 181.011 62.1127 181.31C62.5484 181.603 63.1 181.75 63.7676 181.75ZM71.5712 172.091H73.2473V183.795C73.2473 184.468 73.1313 185.05 72.8993 185.543C72.6721 186.035 72.3264 186.416 71.8624 186.686C71.4031 186.956 70.8231 187.091 70.1223 187.091C70.0655 187.091 70.0087 187.091 69.9519 187.091C69.8951 187.091 69.8382 187.091 69.7814 187.091V185.528C69.8382 185.528 69.8903 185.528 69.9377 185.528C69.985 185.528 70.0371 185.528 70.0939 185.528C70.6053 185.528 70.9793 185.377 71.2161 185.074C71.4528 184.776 71.5712 184.349 71.5712 183.795V172.091ZM72.3951 170.273C72.0684 170.273 71.7866 170.161 71.5499 169.939C71.3179 169.716 71.2019 169.449 71.2019 169.136C71.2019 168.824 71.3179 168.556 71.5499 168.334C71.7866 168.111 72.0684 168 72.3951 168C72.7218 168 73.0011 168.111 73.2331 168.334C73.4699 168.556 73.5882 168.824 73.5882 169.136C73.5882 169.449 73.4699 169.716 73.2331 169.939C73.0011 170.161 72.7218 170.273 72.3951 170.273ZM80.7491 183.227C79.7643 183.227 78.9002 182.993 78.1568 182.524C77.4181 182.055 76.8405 181.4 76.4238 180.557C76.0119 179.714 75.8059 178.729 75.8059 177.602C75.8059 176.466 76.0119 175.474 76.4238 174.626C76.8405 173.779 77.4181 173.121 78.1568 172.652C78.9002 172.183 79.7643 171.949 80.7491 171.949C81.734 171.949 82.5957 172.183 83.3343 172.652C84.0777 173.121 84.6554 173.779 85.0673 174.626C85.484 175.474 85.6923 176.466 85.6923 177.602C85.6923 178.729 85.484 179.714 85.0673 180.557C84.6554 181.4 84.0777 182.055 83.3343 182.524C82.5957 182.993 81.734 183.227 80.7491 183.227ZM80.7491 181.722C81.4972 181.722 82.1127 181.53 82.5957 181.146C83.0787 180.763 83.4361 180.259 83.6681 179.634C83.9002 179.009 84.0162 178.331 84.0162 177.602C84.0162 176.873 83.9002 176.194 83.6681 175.564C83.4361 174.934 83.0787 174.425 82.5957 174.037C82.1127 173.649 81.4972 173.455 80.7491 173.455C80.001 173.455 79.3855 173.649 78.9025 174.037C78.4196 174.425 78.0621 174.934 77.8301 175.564C77.5981 176.194 77.4821 176.873 77.4821 177.602C77.4821 178.331 77.5981 179.009 77.8301 179.634C78.0621 180.259 78.4196 180.763 78.9025 181.146C79.3855 181.53 80.001 181.722 80.7491 181.722ZM34.4893 207.227C33.5803 207.227 32.7777 206.998 32.0817 206.538C31.3857 206.074 30.8411 205.421 30.4482 204.578C30.0552 203.731 29.8587 202.729 29.8587 201.574C29.8587 200.428 30.0552 199.434 30.4482 198.591C30.8411 197.748 31.388 197.097 32.0888 196.638C32.7895 196.179 33.5992 195.949 34.5178 195.949C35.228 195.949 35.7891 196.067 36.201 196.304C36.6177 196.536 36.9349 196.801 37.1527 197.099C37.3752 197.393 37.5481 197.634 37.6712 197.824H37.8132V192.455H39.4893V207H37.87V205.324H37.6712C37.5481 205.523 37.3729 205.774 37.1456 206.077C36.9183 206.375 36.594 206.643 36.1726 206.879C35.7512 207.111 35.1901 207.227 34.4893 207.227ZM34.7166 205.722C35.389 205.722 35.9571 205.546 36.4212 205.196C36.8852 204.841 37.2379 204.351 37.4794 203.726C37.7209 203.096 37.8416 202.369 37.8416 201.545C37.8416 200.731 37.7232 200.018 37.4865 199.408C37.2498 198.792 36.8994 198.314 36.4354 197.973C35.9714 197.627 35.3984 197.455 34.7166 197.455C34.0064 197.455 33.4145 197.637 32.9411 198.001C32.4723 198.361 32.1196 198.851 31.8828 199.472C31.6508 200.087 31.5348 200.778 31.5348 201.545C31.5348 202.322 31.6532 203.027 31.8899 203.662C32.1314 204.292 32.4865 204.794 32.9553 205.168C33.4287 205.537 34.0159 205.722 34.7166 205.722ZM47.3658 207.227C46.3146 207.227 45.4079 206.995 44.6456 206.531C43.888 206.062 43.3033 205.409 42.8913 204.571C42.4841 203.728 42.2805 202.748 42.2805 201.631C42.2805 200.513 42.4841 199.528 42.8913 198.676C43.3033 197.819 43.8762 197.152 44.6101 196.673C45.3487 196.19 46.2105 195.949 47.1953 195.949C47.7635 195.949 48.3246 196.044 48.8786 196.233C49.4325 196.422 49.9368 196.73 50.3913 197.156C50.8459 197.578 51.2081 198.136 51.478 198.832C51.7479 199.528 51.8828 200.385 51.8828 201.403V202.114H43.4737V200.665H50.1783C50.1783 200.049 50.0552 199.5 49.8089 199.017C49.5675 198.534 49.2218 198.153 48.772 197.874C48.3269 197.594 47.8014 197.455 47.1953 197.455C46.5277 197.455 45.95 197.62 45.4624 197.952C44.9794 198.278 44.6077 198.705 44.3473 199.23C44.0869 199.756 43.9567 200.319 43.9567 200.92V201.886C43.9567 202.71 44.0987 203.409 44.3828 203.982C44.6716 204.55 45.0717 204.983 45.5831 205.281C46.0945 205.575 46.6887 205.722 47.3658 205.722C47.8061 205.722 48.2038 205.66 48.5589 205.537C48.9188 205.409 49.2289 205.22 49.4893 204.969C49.7498 204.713 49.951 204.396 50.093 204.017L51.7124 204.472C51.5419 205.021 51.2554 205.504 50.853 205.92C50.4505 206.332 49.9534 206.654 49.3615 206.886C48.7696 207.114 48.1044 207.227 47.3658 207.227ZM61.7337 192.455V207H60.0575V192.455H61.7337ZM68.0138 207.256C67.3226 207.256 66.6952 207.125 66.1317 206.865C65.5683 206.6 65.1209 206.219 64.7894 205.722C64.458 205.22 64.2923 204.614 64.2923 203.903C64.2923 203.278 64.4154 202.772 64.6616 202.384C64.9078 201.991 65.2369 201.683 65.6488 201.46C66.0607 201.238 66.5153 201.072 67.0124 200.963C67.5143 200.849 68.0186 200.759 68.5252 200.693C69.1881 200.608 69.7255 200.544 70.1374 200.501C70.5541 200.454 70.8571 200.376 71.0465 200.267C71.2406 200.158 71.3377 199.969 71.3377 199.699V199.642C71.3377 198.941 71.146 198.397 70.7624 198.009C70.3836 197.62 69.8084 197.426 69.0366 197.426C68.2364 197.426 67.609 197.601 67.1545 197.952C66.6999 198.302 66.3803 198.676 66.1957 199.074L64.6048 198.506C64.8888 197.843 65.2676 197.327 65.7411 196.957C66.2193 196.583 66.7402 196.323 67.3036 196.176C67.8718 196.025 68.4305 195.949 68.9798 195.949C69.3301 195.949 69.7326 195.991 70.1871 196.077C70.6464 196.157 71.0891 196.325 71.5153 196.581C71.9461 196.837 72.3036 197.223 72.5877 197.739C72.8718 198.255 73.0138 198.946 73.0138 199.812V207H71.3377V205.523H71.2525C71.1388 205.759 70.9495 206.013 70.6843 206.283C70.4192 206.553 70.0664 206.782 69.6261 206.972C69.1857 207.161 68.6483 207.256 68.0138 207.256ZM68.2695 205.75C68.9324 205.75 69.4911 205.62 69.9457 205.359C70.4049 205.099 70.7506 204.763 70.9826 204.351C71.2193 203.939 71.3377 203.506 71.3377 203.051V201.517C71.2667 201.602 71.1104 201.68 70.869 201.751C70.6322 201.818 70.3576 201.877 70.0451 201.929C69.7373 201.976 69.4367 202.019 69.1431 202.057C68.8543 202.09 68.6199 202.118 68.44 202.142C68.0044 202.199 67.5972 202.291 67.2184 202.419C66.8443 202.542 66.5413 202.729 66.3093 202.98C66.082 203.226 65.9684 203.562 65.9684 203.989C65.9684 204.571 66.1838 205.011 66.6147 205.31C67.0503 205.603 67.6019 205.75 68.2695 205.75ZM12.8505 231V220.091H14.4698V221.795H14.6119C14.8391 221.213 15.2061 220.761 15.7127 220.439C16.2193 220.112 16.8278 219.949 17.538 219.949C18.2577 219.949 18.8567 220.112 19.3349 220.439C19.8178 220.761 20.1942 221.213 20.4641 221.795H20.5778C20.8571 221.232 21.2762 220.785 21.8349 220.453C22.3936 220.117 23.0636 219.949 23.8448 219.949C24.8202 219.949 25.618 220.254 26.2383 220.865C26.8585 221.471 27.1687 222.416 27.1687 223.699V231H25.4925V223.699C25.4925 222.894 25.2724 222.319 24.832 221.973C24.3917 221.627 23.8732 221.455 23.2766 221.455C22.5096 221.455 21.9154 221.687 21.494 222.151C21.0726 222.61 20.8619 223.192 20.8619 223.898V231H19.1573V223.528C19.1573 222.908 18.9561 222.409 18.5536 222.03C18.1512 221.646 17.6327 221.455 16.9982 221.455C16.5626 221.455 16.1554 221.571 15.7766 221.803C15.4026 222.035 15.0996 222.357 14.8675 222.768C14.6403 223.176 14.5266 223.647 14.5266 224.182V231H12.8505ZM33.4435 231.256C32.7522 231.256 32.1249 231.125 31.5614 230.865C30.998 230.6 30.5505 230.219 30.2191 229.722C29.8877 229.22 29.7219 228.614 29.7219 227.903C29.7219 227.278 29.8451 226.772 30.0913 226.384C30.3375 225.991 30.6665 225.683 31.0785 225.46C31.4904 225.238 31.945 225.072 32.4421 224.963C32.944 224.849 33.4483 224.759 33.9549 224.693C34.6178 224.608 35.1552 224.544 35.5671 224.501C35.9838 224.454 36.2868 224.376 36.4762 224.267C36.6703 224.158 36.7674 223.969 36.7674 223.699V223.642C36.7674 222.941 36.5756 222.397 36.1921 222.009C35.8133 221.62 35.238 221.426 34.4663 221.426C33.6661 221.426 33.0387 221.601 32.5842 221.952C32.1296 222.302 31.81 222.676 31.6254 223.074L30.0344 222.506C30.3185 221.843 30.6973 221.327 31.1708 220.957C31.649 220.583 32.1699 220.323 32.7333 220.176C33.3015 220.025 33.8602 219.949 34.4094 219.949C34.7598 219.949 35.1623 219.991 35.6168 220.077C36.0761 220.157 36.5188 220.325 36.945 220.581C37.3758 220.837 37.7333 221.223 38.0174 221.739C38.3015 222.255 38.4435 222.946 38.4435 223.812V231H36.7674V229.523H36.6822C36.5685 229.759 36.3791 230.013 36.114 230.283C35.8488 230.553 35.4961 230.782 35.0558 230.972C34.6154 231.161 34.078 231.256 33.4435 231.256ZM33.6992 229.75C34.3621 229.75 34.9208 229.62 35.3754 229.359C35.8346 229.099 36.1803 228.763 36.4123 228.351C36.649 227.939 36.7674 227.506 36.7674 227.051V225.517C36.6964 225.602 36.5401 225.68 36.2987 225.751C36.0619 225.818 35.7873 225.877 35.4748 225.929C35.167 225.976 34.8664 226.019 34.5728 226.057C34.284 226.09 34.0496 226.118 33.8697 226.142C33.4341 226.199 33.0269 226.291 32.6481 226.419C32.274 226.542 31.971 226.729 31.739 226.98C31.5117 227.226 31.3981 227.562 31.3981 227.989C31.3981 228.571 31.6135 229.011 32.0444 229.31C32.48 229.603 33.0316 229.75 33.6992 229.75ZM49.2301 222.534L47.7244 222.96C47.6297 222.709 47.4901 222.465 47.3054 222.229C47.1255 221.987 46.8793 221.788 46.5668 221.632C46.2543 221.476 45.8542 221.398 45.3665 221.398C44.6989 221.398 44.1425 221.552 43.6974 221.859C43.2571 222.162 43.0369 222.548 43.0369 223.017C43.0369 223.434 43.1884 223.763 43.4915 224.004C43.7945 224.246 44.268 224.447 44.9119 224.608L46.5312 225.006C47.5066 225.242 48.2334 225.605 48.7116 226.092C49.1899 226.575 49.429 227.198 49.429 227.96C49.429 228.585 49.2491 229.144 48.8892 229.636C48.5341 230.129 48.0369 230.517 47.3977 230.801C46.7585 231.085 46.0152 231.227 45.1676 231.227C44.0549 231.227 43.134 230.986 42.4048 230.503C41.6757 230.02 41.214 229.314 41.0199 228.386L42.6108 227.989C42.7623 228.576 43.0488 229.016 43.4702 229.31C43.8963 229.603 44.4527 229.75 45.1392 229.75C45.9205 229.75 46.5407 229.584 47 229.253C47.464 228.917 47.696 228.514 47.696 228.045C47.696 227.667 47.5634 227.349 47.2983 227.094C47.0331 226.833 46.6259 226.639 46.0767 226.511L44.2585 226.085C43.2595 225.848 42.5256 225.482 42.0568 224.984C41.5928 224.482 41.3608 223.855 41.3608 223.102C41.3608 222.487 41.5336 221.942 41.8793 221.469C42.2296 220.995 42.7055 220.624 43.3068 220.354C43.9129 220.084 44.5994 219.949 45.3665 219.949C46.446 219.949 47.2936 220.186 47.9091 220.659C48.5294 221.133 48.9697 221.758 49.2301 222.534ZM56.3839 231.227C55.3612 231.227 54.4805 230.986 53.7418 230.503C53.0032 230.02 52.435 229.355 52.0373 228.507C51.6396 227.66 51.4407 226.691 51.4407 225.602C51.4407 224.494 51.6443 223.517 52.0515 222.669C52.4634 221.817 53.0363 221.152 53.7702 220.673C54.5089 220.19 55.3706 219.949 56.3555 219.949C57.1225 219.949 57.8138 220.091 58.4293 220.375C59.0449 220.659 59.5491 221.057 59.9421 221.568C60.3351 222.08 60.579 222.676 60.6737 223.358H58.9975C58.8697 222.861 58.5856 222.42 58.1452 222.037C57.7096 221.649 57.1225 221.455 56.3839 221.455C55.7305 221.455 55.1576 221.625 54.6651 221.966C54.1774 222.302 53.7963 222.778 53.5217 223.393C53.2518 224.004 53.1168 224.722 53.1168 225.545C53.1168 226.388 53.2494 227.122 53.5146 227.747C53.7844 228.372 54.1632 228.857 54.6509 229.203C55.1433 229.549 55.721 229.722 56.3839 229.722C56.8195 229.722 57.2148 229.646 57.57 229.494C57.9251 229.343 58.2257 229.125 58.4719 228.841C58.7182 228.557 58.8933 228.216 58.9975 227.818H60.6737C60.579 228.462 60.3446 229.042 59.9705 229.558C59.6012 230.07 59.1112 230.477 58.5004 230.78C57.8943 231.078 57.1888 231.227 56.3839 231.227ZM67.5558 231.227C66.5709 231.227 65.7068 230.993 64.9634 230.524C64.2248 230.055 63.6471 229.4 63.2305 228.557C62.8185 227.714 62.6126 226.729 62.6126 225.602C62.6126 224.466 62.8185 223.474 63.2305 222.626C63.6471 221.779 64.2248 221.121 64.9634 220.652C65.7068 220.183 66.5709 219.949 67.5558 219.949C68.5406 219.949 69.4023 220.183 70.141 220.652C70.8844 221.121 71.462 221.779 71.8739 222.626C72.2906 223.474 72.4989 224.466 72.4989 225.602C72.4989 226.729 72.2906 227.714 71.8739 228.557C71.462 229.4 70.8844 230.055 70.141 230.524C69.4023 230.993 68.5406 231.227 67.5558 231.227ZM67.5558 229.722C68.3039 229.722 68.9194 229.53 69.4023 229.146C69.8853 228.763 70.2428 228.259 70.4748 227.634C70.7068 227.009 70.8228 226.331 70.8228 225.602C70.8228 224.873 70.7068 224.194 70.4748 223.564C70.2428 222.934 69.8853 222.425 69.4023 222.037C68.9194 221.649 68.3039 221.455 67.5558 221.455C66.8076 221.455 66.1921 221.649 65.7092 222.037C65.2262 222.425 64.8687 222.934 64.6367 223.564C64.4047 224.194 64.2887 224.873 64.2887 225.602C64.2887 226.331 64.4047 227.009 64.6367 227.634C64.8687 228.259 65.2262 228.763 65.7092 229.146C66.1921 229.53 66.8076 229.722 67.5558 229.722ZM79.8018 220.091V221.511H74.1484V220.091H79.8018ZM75.7962 217.477H77.4723V227.875C77.4723 228.348 77.541 228.704 77.6783 228.94C77.8203 229.172 78.0002 229.329 78.218 229.409C78.4406 229.485 78.675 229.523 78.9212 229.523C79.1058 229.523 79.2573 229.513 79.3757 229.494C79.4941 229.471 79.5888 229.452 79.6598 229.438L80.0007 230.943C79.8871 230.986 79.7285 231.028 79.5249 231.071C79.3213 231.118 79.0632 231.142 78.7507 231.142C78.2772 231.142 77.8132 231.04 77.3587 230.837C76.9089 230.633 76.5348 230.323 76.2365 229.906C75.9429 229.49 75.7962 228.964 75.7962 228.33V217.477ZM85.5334 231.256C84.8421 231.256 84.2147 231.125 83.6513 230.865C83.0878 230.6 82.6404 230.219 82.3089 229.722C81.9775 229.22 81.8118 228.614 81.8118 227.903C81.8118 227.278 81.9349 226.772 82.1811 226.384C82.4273 225.991 82.7564 225.683 83.1683 225.46C83.5803 225.238 84.0348 225.072 84.532 224.963C85.0339 224.849 85.5381 224.759 86.0447 224.693C86.7076 224.608 87.245 224.544 87.657 224.501C88.0736 224.454 88.3767 224.376 88.5661 224.267C88.7602 224.158 88.8572 223.969 88.8572 223.699V223.642C88.8572 222.941 88.6655 222.397 88.282 222.009C87.9032 221.62 87.3279 221.426 86.5561 221.426C85.7559 221.426 85.1286 221.601 84.674 221.952C84.2195 222.302 83.8999 222.676 83.7152 223.074L82.1243 222.506C82.4084 221.843 82.7872 221.327 83.2607 220.957C83.7389 220.583 84.2597 220.323 84.8232 220.176C85.3913 220.025 85.95 219.949 86.4993 219.949C86.8497 219.949 87.2521 219.991 87.7067 220.077C88.166 220.157 88.6087 220.325 89.0348 220.581C89.4657 220.837 89.8232 221.223 90.1072 221.739C90.3913 222.255 90.5334 222.946 90.5334 223.812V231H88.8572V229.523H88.772C88.6584 229.759 88.469 230.013 88.2038 230.283C87.9387 230.553 87.5859 230.782 87.1456 230.972C86.7053 231.161 86.1679 231.256 85.5334 231.256ZM85.7891 229.75C86.4519 229.75 87.0107 229.62 87.4652 229.359C87.9245 229.099 88.2701 228.763 88.5021 228.351C88.7389 227.939 88.8572 227.506 88.8572 227.051V225.517C88.7862 225.602 88.63 225.68 88.3885 225.751C88.1518 225.818 87.8771 225.877 87.5646 225.929C87.2569 225.976 86.9562 226.019 86.6626 226.057C86.3738 226.09 86.1394 226.118 85.9595 226.142C85.5239 226.199 85.1167 226.291 84.7379 226.419C84.3639 226.542 84.0608 226.729 83.8288 226.98C83.6016 227.226 83.4879 227.562 83.4879 227.989C83.4879 228.571 83.7034 229.011 84.1342 229.31C84.5698 229.603 85.1214 229.75 85.7891 229.75ZM14.2292 259.091V253.324H14.0872C13.9641 253.523 13.7889 253.774 13.5616 254.077C13.3343 254.375 13.01 254.643 12.5886 254.879C12.1672 255.111 11.6061 255.227 10.9054 255.227C9.99627 255.227 9.19371 254.998 8.49769 254.538C7.80167 254.074 7.25716 253.421 6.86417 252.578C6.47118 251.731 6.27468 250.729 6.27468 249.574C6.27468 248.428 6.47118 247.434 6.86417 246.591C7.25716 245.748 7.80404 245.097 8.50479 244.638C9.20555 244.179 10.0152 243.949 10.9338 243.949C11.644 243.949 12.2051 244.067 12.617 244.304C13.0337 244.536 13.3509 244.801 13.5687 245.099C13.7913 245.393 13.9641 245.634 14.0872 245.824H14.286V244.091H15.9054V259.091H14.2292ZM11.1326 253.722C11.805 253.722 12.3732 253.546 12.8372 253.196C13.3012 252.841 13.6539 252.351 13.8954 251.726C14.1369 251.096 14.2576 250.369 14.2576 249.545C14.2576 248.731 14.1393 248.018 13.9025 247.408C13.6658 246.792 13.3154 246.314 12.8514 245.973C12.3874 245.627 11.8145 245.455 11.1326 245.455C10.4224 245.455 9.83055 245.637 9.35707 246.001C8.88832 246.361 8.53557 246.851 8.29883 247.472C8.06682 248.087 7.95082 248.778 7.95082 249.545C7.95082 250.322 8.06919 251.027 8.30593 251.662C8.54741 252.292 8.90252 252.794 9.37127 253.168C9.84476 253.537 10.4319 253.722 11.1326 253.722ZM25.8485 250.54V244.091H27.5247V255H25.8485V253.153H25.7349C25.4792 253.707 25.0815 254.179 24.5417 254.567C24.002 254.95 23.3201 255.142 22.4963 255.142C21.8145 255.142 21.2084 254.993 20.6781 254.695C20.1478 254.392 19.7311 253.937 19.4281 253.331C19.1251 252.72 18.9735 251.951 18.9735 251.023V244.091H20.6497V250.909C20.6497 251.705 20.8722 252.339 21.3173 252.812C21.7671 253.286 22.34 253.523 23.036 253.523C23.4527 253.523 23.8765 253.416 24.3074 253.203C24.743 252.99 25.1075 252.663 25.4011 252.223C25.6994 251.783 25.8485 251.222 25.8485 250.54ZM35.1685 255.227C34.1174 255.227 33.2106 254.995 32.4483 254.531C31.6908 254.062 31.106 253.409 30.6941 252.571C30.2869 251.728 30.0833 250.748 30.0833 249.631C30.0833 248.513 30.2869 247.528 30.6941 246.676C31.106 245.819 31.6789 245.152 32.4128 244.673C33.1515 244.19 34.0132 243.949 34.998 243.949C35.5662 243.949 36.1273 244.044 36.6813 244.233C37.2353 244.422 37.7395 244.73 38.1941 245.156C38.6486 245.578 39.0108 246.136 39.2807 246.832C39.5506 247.528 39.6855 248.385 39.6855 249.403V250.114H31.2765V248.665H37.981C37.981 248.049 37.8579 247.5 37.6117 247.017C37.3702 246.534 37.0246 246.153 36.5748 245.874C36.1297 245.594 35.6041 245.455 34.998 245.455C34.3304 245.455 33.7528 245.62 33.2651 245.952C32.7821 246.278 32.4105 246.705 32.15 247.23C31.8896 247.756 31.7594 248.319 31.7594 248.92V249.886C31.7594 250.71 31.9015 251.409 32.1855 251.982C32.4744 252.55 32.8745 252.983 33.3858 253.281C33.8972 253.575 34.4914 253.722 35.1685 253.722C35.6088 253.722 36.0066 253.66 36.3617 253.537C36.7215 253.409 37.0317 253.22 37.2921 252.969C37.5525 252.713 37.7537 252.396 37.8958 252.017L39.5151 252.472C39.3446 253.021 39.0582 253.504 38.6557 253.92C38.2533 254.332 37.7561 254.654 37.1642 254.886C36.5724 255.114 35.9071 255.227 35.1685 255.227ZM51.9796 255.227C51.0705 255.227 50.2679 254.998 49.5719 254.538C48.8759 254.074 48.3314 253.421 47.9384 252.578C47.5454 251.731 47.3489 250.729 47.3489 249.574C47.3489 248.428 47.5454 247.434 47.9384 246.591C48.3314 245.748 48.8783 245.097 49.579 244.638C50.2798 244.179 51.0894 243.949 52.008 243.949C52.7182 243.949 53.2793 244.067 53.6912 244.304C54.1079 244.536 54.4251 244.801 54.6429 245.099C54.8655 245.393 55.0383 245.634 55.1614 245.824H55.3034V240.455H56.9796V255H55.3603V253.324H55.1614C55.0383 253.523 54.8631 253.774 54.6358 254.077C54.4086 254.375 54.0842 254.643 53.6628 254.879C53.2414 255.111 52.6803 255.227 51.9796 255.227ZM52.2069 253.722C52.8792 253.722 53.4474 253.546 53.9114 253.196C54.3754 252.841 54.7282 252.351 54.9696 251.726C55.2111 251.096 55.3319 250.369 55.3319 249.545C55.3319 248.731 55.2135 248.018 54.9767 247.408C54.74 246.792 54.3896 246.314 53.9256 245.973C53.4616 245.627 52.8887 245.455 52.2069 245.455C51.4966 245.455 50.9048 245.637 50.4313 246.001C49.9625 246.361 49.6098 246.851 49.373 247.472C49.141 248.087 49.025 248.778 49.025 249.545C49.025 250.322 49.1434 251.027 49.3801 251.662C49.6216 252.292 49.9767 252.794 50.4455 253.168C50.919 253.537 51.5061 253.722 52.2069 253.722ZM64.856 255.227C63.8049 255.227 62.8981 254.995 62.1358 254.531C61.3783 254.062 60.7935 253.409 60.3816 252.571C59.9744 251.728 59.7708 250.748 59.7708 249.631C59.7708 248.513 59.9744 247.528 60.3816 246.676C60.7935 245.819 61.3664 245.152 62.1003 244.673C62.839 244.19 63.7007 243.949 64.6855 243.949C65.2537 243.949 65.8148 244.044 66.3688 244.233C66.9228 244.422 67.427 244.73 67.8816 245.156C68.3361 245.578 68.6983 246.136 68.9682 246.832C69.2381 247.528 69.373 248.385 69.373 249.403V250.114H60.964V248.665H67.6685C67.6685 248.049 67.5454 247.5 67.2992 247.017C67.0577 246.534 66.7121 246.153 66.2623 245.874C65.8172 245.594 65.2916 245.455 64.6855 245.455C64.0179 245.455 63.4403 245.62 62.9526 245.952C62.4696 246.278 62.098 246.705 61.8375 247.23C61.5771 247.756 61.4469 248.319 61.4469 248.92V249.886C61.4469 250.71 61.589 251.409 61.873 251.982C62.1619 252.55 62.562 252.983 63.0733 253.281C63.5847 253.575 64.1789 253.722 64.856 253.722C65.2963 253.722 65.6941 253.66 66.0492 253.537C66.409 253.409 66.7192 253.22 66.9796 252.969C67.24 252.713 67.4412 252.396 67.5833 252.017L69.2026 252.472C69.0321 253.021 68.7457 253.504 68.3432 253.92C67.9408 254.332 67.4436 254.654 66.8517 254.886C66.2599 255.114 65.5946 255.227 64.856 255.227ZM79.65 246.534L78.1444 246.96C78.0497 246.709 77.91 246.465 77.7253 246.229C77.5454 245.987 77.2992 245.788 76.9867 245.632C76.6742 245.476 76.2741 245.398 75.7864 245.398C75.1188 245.398 74.5624 245.552 74.1174 245.859C73.677 246.162 73.4569 246.548 73.4569 247.017C73.4569 247.434 73.6084 247.763 73.9114 248.004C74.2144 248.246 74.6879 248.447 75.3319 248.608L76.9512 249.006C77.9266 249.242 78.6533 249.605 79.1316 250.092C79.6098 250.575 79.8489 251.198 79.8489 251.96C79.8489 252.585 79.669 253.144 79.3091 253.636C78.954 254.129 78.4569 254.517 77.8176 254.801C77.1784 255.085 76.4351 255.227 75.5875 255.227C74.4748 255.227 73.5539 254.986 72.8248 254.503C72.0956 254.02 71.6339 253.314 71.4398 252.386L73.0307 251.989C73.1822 252.576 73.4687 253.016 73.8901 253.31C74.3162 253.603 74.8726 253.75 75.5591 253.75C76.3404 253.75 76.9606 253.584 77.4199 253.253C77.8839 252.917 78.1159 252.514 78.1159 252.045C78.1159 251.667 77.9834 251.349 77.7182 251.094C77.4531 250.833 77.0459 250.639 76.4966 250.511L74.6784 250.085C73.6794 249.848 72.9455 249.482 72.4767 248.984C72.0127 248.482 71.7807 247.855 71.7807 247.102C71.7807 246.487 71.9535 245.942 72.2992 245.469C72.6496 244.995 73.1254 244.624 73.7267 244.354C74.3328 244.084 75.0194 243.949 75.7864 243.949C76.8659 243.949 77.7135 244.186 78.329 244.659C78.9493 245.133 79.3896 245.758 79.65 246.534ZM86.9458 255.227C85.8947 255.227 84.988 254.995 84.2257 254.531C83.4681 254.062 82.8833 253.409 82.4714 252.571C82.0642 251.728 81.8606 250.748 81.8606 249.631C81.8606 248.513 82.0642 247.528 82.4714 246.676C82.8833 245.819 83.4563 245.152 84.1902 244.673C84.9288 244.19 85.7905 243.949 86.7754 243.949C87.3436 243.949 87.9047 244.044 88.4586 244.233C89.0126 244.422 89.5169 244.73 89.9714 245.156C90.426 245.578 90.7882 246.136 91.0581 246.832C91.3279 247.528 91.4629 248.385 91.4629 249.403V250.114H83.0538V248.665H89.7583C89.7583 248.049 89.6352 247.5 89.389 247.017C89.1475 246.534 88.8019 246.153 88.3521 245.874C87.907 245.594 87.3815 245.455 86.7754 245.455C86.1078 245.455 85.5301 245.62 85.0424 245.952C84.5595 246.278 84.1878 246.705 83.9274 247.23C83.667 247.756 83.5368 248.319 83.5368 248.92V249.886C83.5368 250.71 83.6788 251.409 83.9629 251.982C84.2517 252.55 84.6518 252.983 85.1632 253.281C85.6745 253.575 86.2688 253.722 86.9458 253.722C87.3862 253.722 87.7839 253.66 88.139 253.537C88.4989 253.409 88.809 253.22 89.0694 252.969C89.3298 252.713 89.5311 252.396 89.6731 252.017L91.2924 252.472C91.122 253.021 90.8355 253.504 90.4331 253.92C90.0306 254.332 89.5334 254.654 88.9416 254.886C88.3497 255.114 87.6845 255.227 86.9458 255.227ZM97.2228 255.256C96.5315 255.256 95.9042 255.125 95.3407 254.865C94.7773 254.6 94.3298 254.219 93.9984 253.722C93.667 253.22 93.5012 252.614 93.5012 251.903C93.5012 251.278 93.6243 250.772 93.8706 250.384C94.1168 249.991 94.4458 249.683 94.8578 249.46C95.2697 249.238 95.7243 249.072 96.2214 248.963C96.7233 248.849 97.2276 248.759 97.7342 248.693C98.3971 248.608 98.9345 248.544 99.3464 248.501C99.7631 248.454 100.066 248.376 100.256 248.267C100.45 248.158 100.547 247.969 100.547 247.699V247.642C100.547 246.941 100.355 246.397 99.9714 246.009C99.5926 245.62 99.0173 245.426 98.2456 245.426C97.4454 245.426 96.818 245.601 96.3635 245.952C95.9089 246.302 95.5893 246.676 95.4047 247.074L93.8137 246.506C94.0978 245.843 94.4766 245.327 94.9501 244.957C95.4283 244.583 95.9492 244.323 96.5126 244.176C97.0808 244.025 97.6395 243.949 98.1887 243.949C98.5391 243.949 98.9416 243.991 99.3961 244.077C99.8554 244.157 100.298 244.325 100.724 244.581C101.155 244.837 101.513 245.223 101.797 245.739C102.081 246.255 102.223 246.946 102.223 247.812V255H100.547V253.523H100.461C100.348 253.759 100.158 254.013 99.8933 254.283C99.6281 254.553 99.2754 254.782 98.835 254.972C98.3947 255.161 97.8573 255.256 97.2228 255.256ZM97.4785 253.75C98.1414 253.75 98.7001 253.62 99.1547 253.359C99.6139 253.099 99.9596 252.763 100.192 252.351C100.428 251.939 100.547 251.506 100.547 251.051V249.517C100.476 249.602 100.319 249.68 100.078 249.751C99.8412 249.818 99.5666 249.877 99.2541 249.929C98.9463 249.976 98.6457 250.019 98.3521 250.057C98.0633 250.09 97.8289 250.118 97.649 250.142C97.2134 250.199 96.8062 250.291 96.4274 250.419C96.0533 250.542 95.7503 250.729 95.5183 250.98C95.291 251.226 95.1774 251.562 95.1774 251.989C95.1774 252.571 95.3928 253.011 95.8237 253.31C96.2593 253.603 96.8109 253.75 97.4785 253.75Z" fill="white"/>
</svg>
