<svg width="213" height="231" viewBox="0 0 213 231" fill="none" xmlns="http://www.w3.org/2000/svg">
<path d="M6.45641 12.4375V19H4.78027V4.45455H6.45641V9.79545H6.59846C6.85414 9.23201 7.23766 8.78456 7.74902 8.45312C8.26512 8.11695 8.95168 7.94886 9.80868 7.94886C10.5521 7.94886 11.2031 8.09801 11.7618 8.39631C12.3205 8.68987 12.7538 9.14205 13.0615 9.75284C13.374 10.3589 13.5303 11.1307 13.5303 12.0682V19H11.8541V12.1818C11.8541 11.3153 11.6292 10.6454 11.1794 10.1719C10.7344 9.69366 10.1165 9.45455 9.32573 9.45455C8.77649 9.45455 8.28406 9.57055 7.84846 9.80256C7.41759 10.0346 7.07668 10.3731 6.82573 10.8182C6.57952 11.2633 6.45641 11.803 6.45641 12.4375ZM19.8069 19.2557C19.1156 19.2557 18.4883 19.1255 17.9248 18.8651C17.3614 18.5999 16.9139 18.2188 16.5825 17.7216C16.251 17.2197 16.0853 16.6136 16.0853 15.9034C16.0853 15.2784 16.2084 14.7718 16.4546 14.3835C16.7009 13.9905 17.0299 13.6828 17.4419 13.4602C17.8538 13.2377 18.3083 13.072 18.8055 12.9631C19.3074 12.8494 19.8117 12.7595 20.3183 12.6932C20.9812 12.608 21.5186 12.544 21.9305 12.5014C22.3472 12.4541 22.6502 12.3759 22.8396 12.267C23.0337 12.1581 23.1308 11.9687 23.1308 11.6989V11.642C23.1308 10.9413 22.939 10.3968 22.5555 10.0085C22.1767 9.62027 21.6014 9.42614 20.8296 9.42614C20.0295 9.42614 19.4021 9.60133 18.9475 9.9517C18.493 10.3021 18.1734 10.6761 17.9887 11.0739L16.3978 10.5057C16.6819 9.8428 17.0607 9.3267 17.5342 8.95739C18.0124 8.58333 18.5332 8.32292 19.0967 8.17614C19.6649 8.02462 20.2236 7.94886 20.7728 7.94886C21.1232 7.94886 21.5257 7.99148 21.9802 8.0767C22.4395 8.1572 22.8822 8.32528 23.3083 8.58097C23.7392 8.83665 24.0967 9.22254 24.3808 9.73864C24.6649 10.2547 24.8069 10.946 24.8069 11.8125V19H23.1308V17.5227H23.0456C22.9319 17.7595 22.7425 18.0128 22.4774 18.2827C22.2122 18.5526 21.8595 18.7822 21.4191 18.9716C20.9788 19.161 20.4414 19.2557 19.8069 19.2557ZM20.0626 17.75C20.7255 17.75 21.2842 17.6198 21.7387 17.3594C22.198 17.099 22.5437 16.7628 22.7757 16.3509C23.0124 15.9389 23.1308 15.5057 23.1308 15.0511V13.517C23.0598 13.6023 22.9035 13.6804 22.662 13.7514C22.4253 13.8177 22.1507 13.8769 21.8382 13.929C21.5304 13.9763 21.2297 14.0189 20.9362 14.0568C20.6474 14.09 20.413 14.1184 20.2331 14.142C19.7974 14.1989 19.3903 14.2912 19.0115 14.419C18.6374 14.5421 18.3344 14.7292 18.1024 14.9801C17.8751 15.2263 17.7615 15.5625 17.7615 15.9886C17.7615 16.571 17.9769 17.0114 18.4078 17.3097C18.8434 17.6032 19.395 17.75 20.0626 17.75ZM32.2696 23.3182C31.46 23.3182 30.7639 23.214 30.1816 23.0057C29.5992 22.8021 29.1139 22.5322 28.7256 22.196C28.3421 21.8646 28.0367 21.5095 27.8094 21.1307L29.1446 20.1932C29.2961 20.392 29.4879 20.6193 29.7199 20.875C29.9519 21.1354 30.2692 21.3603 30.6716 21.5497C31.0788 21.7438 31.6115 21.8409 32.2696 21.8409C33.1503 21.8409 33.8771 21.6278 34.45 21.2017C35.0229 20.7756 35.3094 20.108 35.3094 19.1989V16.983H35.1674C35.0443 17.1818 34.8691 17.428 34.6418 17.7216C34.4193 18.0104 34.0973 18.2685 33.6759 18.4957C33.2592 18.7183 32.6958 18.8295 31.9855 18.8295C31.1049 18.8295 30.3141 18.6212 29.6134 18.2045C28.9174 17.7879 28.3657 17.1818 27.9586 16.3864C27.5561 15.5909 27.3549 14.625 27.3549 13.4886C27.3549 12.3712 27.5514 11.3982 27.9443 10.5696C28.3373 9.73627 28.8842 9.09233 29.585 8.63778C30.2857 8.1785 31.0954 7.94886 32.0139 7.94886C32.7242 7.94886 33.2876 8.06723 33.7043 8.30398C34.1257 8.53598 34.4477 8.80114 34.6702 9.09943C34.8975 9.39299 35.0727 9.63447 35.1958 9.82386H35.3662V8.09091H36.9855V19.3125C36.9855 20.25 36.7725 21.0123 36.3463 21.5994C35.9249 22.1913 35.3568 22.6245 34.6418 22.8991C33.9316 23.1785 33.1408 23.3182 32.2696 23.3182ZM32.2128 17.3239C32.8852 17.3239 33.4533 17.17 33.9174 16.8622C34.3814 16.5545 34.7341 16.1117 34.9756 15.5341C35.2171 14.9564 35.3378 14.2652 35.3378 13.4602C35.3378 12.6742 35.2194 11.9806 34.9827 11.3793C34.746 10.7779 34.3956 10.3068 33.9316 9.96591C33.4675 9.625 32.8946 9.45455 32.2128 9.45455C31.5026 9.45455 30.9107 9.63447 30.4372 9.99432C29.9685 10.3542 29.6157 10.8371 29.379 11.4432C29.147 12.0492 29.031 12.7216 29.031 13.4602C29.031 14.2178 29.1494 14.8878 29.3861 15.4702C29.6276 16.0478 29.9827 16.5024 30.4514 16.8338C30.9249 17.1605 31.5121 17.3239 32.2128 17.3239ZM43.2639 19.2557C42.5727 19.2557 41.9453 19.1255 41.3818 18.8651C40.8184 18.5999 40.371 18.2188 40.0395 17.7216C39.7081 17.2197 39.5424 16.6136 39.5424 15.9034C39.5424 15.2784 39.6655 14.7718 39.9117 14.3835C40.1579 13.9905 40.487 13.6828 40.8989 13.4602C41.3108 13.2377 41.7654 13.072 42.2625 12.9631C42.7644 12.8494 43.2687 12.7595 43.7753 12.6932C44.4382 12.608 44.9756 12.544 45.3875 12.5014C45.8042 12.4541 46.1072 12.3759 46.2966 12.267C46.4907 12.1581 46.5878 11.9687 46.5878 11.6989V11.642C46.5878 10.9413 46.3961 10.3968 46.0125 10.0085C45.6337 9.62027 45.0585 9.42614 44.2867 9.42614C43.4865 9.42614 42.8591 9.60133 42.4046 9.9517C41.95 10.3021 41.6304 10.6761 41.4458 11.0739L39.8549 10.5057C40.1389 9.8428 40.5177 9.3267 40.9912 8.95739C41.4694 8.58333 41.9903 8.32292 42.5537 8.17614C43.1219 8.02462 43.6806 7.94886 44.2299 7.94886C44.5802 7.94886 44.9827 7.99148 45.4372 8.0767C45.8965 8.1572 46.3392 8.32528 46.7654 8.58097C47.1962 8.83665 47.5537 9.22254 47.8378 9.73864C48.1219 10.2547 48.2639 10.946 48.2639 11.8125V19H46.5878V17.5227H46.5026C46.3889 17.7595 46.1996 18.0128 45.9344 18.2827C45.6693 18.5526 45.3165 18.7822 44.8762 18.9716C44.4358 19.161 43.8984 19.2557 43.2639 19.2557ZM43.5196 17.75C44.1825 17.75 44.7412 17.6198 45.1958 17.3594C45.655 17.099 46.0007 16.7628 46.2327 16.3509C46.4694 15.9389 46.5878 15.5057 46.5878 15.0511V13.517C46.5168 13.6023 46.3605 13.6804 46.1191 13.7514C45.8823 13.8177 45.6077 13.8769 45.2952 13.929C44.9874 13.9763 44.6868 14.0189 44.3932 14.0568C44.1044 14.09 43.87 14.1184 43.6901 14.142C43.2545 14.1989 42.8473 14.2912 42.4685 14.419C42.0944 14.5421 41.7914 14.7292 41.5594 14.9801C41.3321 15.2263 41.2185 15.5625 41.2185 15.9886C41.2185 16.571 41.4339 17.0114 41.8648 17.3097C42.3004 17.6032 42.852 17.75 43.5196 17.75ZM61.3801 19.2273C60.3573 19.2273 59.4767 18.9858 58.738 18.5028C57.9994 18.0199 57.4312 17.3546 57.0335 16.5071C56.6358 15.6596 56.4369 14.6913 56.4369 13.6023C56.4369 12.4943 56.6405 11.5166 57.0477 10.669C57.4596 9.81676 58.0325 9.15152 58.7664 8.6733C59.5051 8.19034 60.3668 7.94886 61.3517 7.94886C62.1187 7.94886 62.81 8.09091 63.4255 8.375C64.0411 8.65909 64.5453 9.05682 64.9383 9.56818C65.3313 10.0795 65.5751 10.6761 65.6698 11.358H63.9937C63.8659 10.8608 63.5818 10.4205 63.1414 10.0369C62.7058 9.64867 62.1187 9.45455 61.3801 9.45455C60.7267 9.45455 60.1537 9.625 59.6613 9.96591C59.1736 10.3021 58.7925 10.7779 58.5179 11.3935C58.248 12.0043 58.113 12.7216 58.113 13.5455C58.113 14.3883 58.2456 15.1222 58.5108 15.7472C58.7806 16.3722 59.1594 16.8575 59.6471 17.2031C60.1395 17.5488 60.7172 17.7216 61.3801 17.7216C61.8157 17.7216 62.211 17.6458 62.5662 17.4943C62.9213 17.3428 63.2219 17.125 63.4681 16.8409C63.7144 16.5568 63.8895 16.2159 63.9937 15.8182H65.6698C65.5751 16.4621 65.3408 17.0421 64.9667 17.5582C64.5974 18.0696 64.1073 18.4768 63.4965 18.7798C62.8905 19.0781 62.185 19.2273 61.3801 19.2273ZM69.7963 4.45455V19H68.1201V4.45455H69.7963ZM72.8662 19V8.09091H74.5424V19H72.8662ZM73.7185 6.27273C73.3918 6.27273 73.1101 6.16146 72.8733 5.93892C72.6413 5.71638 72.5253 5.44886 72.5253 5.13636C72.5253 4.82386 72.6413 4.55634 72.8733 4.33381C73.1101 4.11127 73.3918 4 73.7185 4C74.0452 4 74.3246 4.11127 74.5566 4.33381C74.7933 4.55634 74.9117 4.82386 74.9117 5.13636C74.9117 5.44886 74.7933 5.71638 74.5566 5.93892C74.3246 6.16146 74.0452 6.27273 73.7185 6.27273ZM82.0441 19.2273C81.0214 19.2273 80.1407 18.9858 79.4021 18.5028C78.6635 18.0199 78.0953 17.3546 77.6975 16.5071C77.2998 15.6596 77.101 14.6913 77.101 13.6023C77.101 12.4943 77.3046 11.5166 77.7117 10.669C78.1237 9.81676 78.6966 9.15152 79.4305 8.6733C80.1691 8.19034 81.0309 7.94886 82.0157 7.94886C82.7828 7.94886 83.4741 8.09091 84.0896 8.375C84.7051 8.65909 85.2094 9.05682 85.6024 9.56818C85.9954 10.0795 86.2392 10.6761 86.3339 11.358H84.6578C84.5299 10.8608 84.2458 10.4205 83.8055 10.0369C83.3699 9.64867 82.7828 9.45455 82.0441 9.45455C81.3907 9.45455 80.8178 9.625 80.3254 9.96591C79.8377 10.3021 79.4565 10.7779 79.1819 11.3935C78.912 12.0043 78.7771 12.7216 78.7771 13.5455C78.7771 14.3883 78.9097 15.1222 79.1748 15.7472C79.4447 16.3722 79.8235 16.8575 80.3112 17.2031C80.8036 17.5488 81.3813 17.7216 82.0441 17.7216C82.4797 17.7216 82.8751 17.6458 83.2302 17.4943C83.5853 17.3428 83.886 17.125 84.1322 16.8409C84.3784 16.5568 84.5536 16.2159 84.6578 15.8182H86.3339C86.2392 16.4621 86.0048 17.0421 85.6308 17.5582C85.2615 18.0696 84.7714 18.4768 84.1606 18.7798C83.5546 19.0781 82.8491 19.2273 82.0441 19.2273ZM90.3467 15.0227L90.3183 12.9489H90.6592L95.4319 8.09091H97.5058L92.4206 13.233H92.2785L90.3467 15.0227ZM88.7842 19V4.45455H90.4603V19H88.7842ZM95.716 19L91.4546 13.6023L92.6478 12.4375L97.8467 19H95.716ZM36.9323 43.2273C35.8811 43.2273 34.9744 42.9953 34.2121 42.5312C33.4545 42.0625 32.8698 41.4091 32.4578 40.571C32.0506 39.7282 31.847 38.7481 31.847 37.6307C31.847 36.5133 32.0506 35.5284 32.4578 34.6761C32.8698 33.8191 33.4427 33.1515 34.1766 32.6733C34.9152 32.1903 35.777 31.9489 36.7618 31.9489C37.33 31.9489 37.8911 32.0436 38.4451 32.233C38.999 32.4223 39.5033 32.7301 39.9578 33.1562C40.4124 33.5777 40.7746 34.1364 41.0445 34.8324C41.3144 35.5284 41.4493 36.3854 41.4493 37.4034V38.1136H33.0402V36.6648H39.7448C39.7448 36.0492 39.6217 35.5 39.3755 35.017C39.134 34.5341 38.7883 34.1529 38.3385 33.8736C37.8934 33.5942 37.3679 33.4545 36.7618 33.4545C36.0942 33.4545 35.5166 33.6203 35.0289 33.9517C34.5459 34.2784 34.1742 34.7045 33.9138 35.2301C33.6534 35.7557 33.5232 36.3191 33.5232 36.9205V37.8864C33.5232 38.7102 33.6652 39.4086 33.9493 39.9815C34.2381 40.5497 34.6382 40.983 35.1496 41.2812C35.661 41.5748 36.2552 41.7216 36.9323 41.7216C37.3726 41.7216 37.7703 41.66 38.1255 41.5369C38.4853 41.4091 38.7954 41.2197 39.0559 40.9688C39.3163 40.7131 39.5175 40.3958 39.6595 40.017L41.2789 40.4716C41.1084 41.0208 40.822 41.5038 40.4195 41.9205C40.017 42.3324 39.5199 42.6544 38.928 42.8864C38.3362 43.1136 37.6709 43.2273 36.9323 43.2273ZM45.6752 36.4375V43H43.999V32.0909H45.6184V33.7955H45.7604C46.0161 33.2415 46.4043 32.7964 46.9252 32.4602C47.446 32.1193 48.1184 31.9489 48.9422 31.9489C49.6809 31.9489 50.3272 32.1004 50.8811 32.4034C51.4351 32.7017 51.866 33.1562 52.1738 33.767C52.4815 34.3731 52.6354 35.1402 52.6354 36.0682V43H50.9593V36.1818C50.9593 35.3248 50.7367 34.6572 50.2916 34.179C49.8466 33.696 49.2358 33.4545 48.4593 33.4545C47.9242 33.4545 47.446 33.5705 47.0246 33.8026C46.6079 34.0346 46.2789 34.3731 46.0374 34.8182C45.7959 35.2633 45.6752 35.803 45.6752 36.4375ZM65.8971 43.2273C64.846 43.2273 63.9393 42.9953 63.1769 42.5312C62.4194 42.0625 61.8346 41.4091 61.4227 40.571C61.0155 39.7282 60.8119 38.7481 60.8119 37.6307C60.8119 36.5133 61.0155 35.5284 61.4227 34.6761C61.8346 33.8191 62.4075 33.1515 63.1414 32.6733C63.8801 32.1903 64.7418 31.9489 65.7267 31.9489C66.2948 31.9489 66.8559 32.0436 67.4099 32.233C67.9639 32.4223 68.4681 32.7301 68.9227 33.1562C69.3772 33.5777 69.7394 34.1364 70.0093 34.8324C70.2792 35.5284 70.4142 36.3854 70.4142 37.4034V38.1136H62.0051V36.6648H68.7096C68.7096 36.0492 68.5865 35.5 68.3403 35.017C68.0988 34.5341 67.7532 34.1529 67.3034 33.8736C66.8583 33.5942 66.3327 33.4545 65.7267 33.4545C65.059 33.4545 64.4814 33.6203 63.9937 33.9517C63.5108 34.2784 63.1391 34.7045 62.8787 35.2301C62.6182 35.7557 62.488 36.3191 62.488 36.9205V37.8864C62.488 38.7102 62.6301 39.4086 62.9142 39.9815C63.203 40.5497 63.6031 40.983 64.1144 41.2812C64.6258 41.5748 65.22 41.7216 65.8971 41.7216C66.3375 41.7216 66.7352 41.66 67.0903 41.5369C67.4501 41.4091 67.7603 41.2197 68.0207 40.9688C68.2811 40.7131 68.4823 40.3958 68.6244 40.017L70.2437 40.4716C70.0733 41.0208 69.7868 41.5038 69.3843 41.9205C68.9819 42.3324 68.4847 42.6544 67.8929 42.8864C67.301 43.1136 66.6358 43.2273 65.8971 43.2273ZM74.64 28.4545V43H72.9639V28.4545H74.64ZM11.6358 67V56.0909H13.3119V67H11.6358ZM12.488 54.2727C12.1613 54.2727 11.8796 54.1615 11.6429 53.9389C11.4108 53.7164 11.2948 53.4489 11.2948 53.1364C11.2948 52.8239 11.4108 52.5563 11.6429 52.3338C11.8796 52.1113 12.1613 52 12.488 52C12.8147 52 13.0941 52.1113 13.3261 52.3338C13.5628 52.5563 13.6812 52.8239 13.6812 53.1364C13.6812 53.4489 13.5628 53.7164 13.3261 53.9389C13.0941 54.1615 12.8147 54.2727 12.488 54.2727ZM20.8137 67.2273C19.7909 67.2273 18.9103 66.9858 18.1716 66.5028C17.433 66.0199 16.8648 65.3546 16.4671 64.5071C16.0693 63.6596 15.8705 62.6913 15.8705 61.6023C15.8705 60.4943 16.0741 59.5166 16.4813 58.669C16.8932 57.8168 17.4661 57.1515 18.2 56.6733C18.9387 56.1903 19.8004 55.9489 20.7853 55.9489C21.5523 55.9489 22.2436 56.0909 22.8591 56.375C23.4747 56.6591 23.9789 57.0568 24.3719 57.5682C24.7649 58.0795 25.0087 58.6761 25.1034 59.358H23.4273C23.2995 58.8608 23.0154 58.4205 22.575 58.0369C22.1394 57.6487 21.5523 57.4545 20.8137 57.4545C20.1603 57.4545 19.5873 57.625 19.0949 57.9659C18.6072 58.3021 18.2261 58.7779 17.9514 59.3935C17.6816 60.0043 17.5466 60.7216 17.5466 61.5455C17.5466 62.3883 17.6792 63.1222 17.9443 63.7472C18.2142 64.3722 18.593 64.8575 19.0807 65.2031C19.5731 65.5488 20.1508 65.7216 20.8137 65.7216C21.2493 65.7216 21.6446 65.6458 21.9997 65.4943C22.3549 65.3428 22.6555 65.125 22.9017 64.8409C23.1479 64.5568 23.3231 64.2159 23.4273 63.8182H25.1034C25.0087 64.4621 24.7744 65.0421 24.4003 65.5582C24.031 66.0696 23.5409 66.4768 22.9301 66.7798C22.3241 67.0781 21.6186 67.2273 20.8137 67.2273ZM31.9855 67.2273C31.0007 67.2273 30.1366 66.9929 29.3932 66.5241C28.6546 66.0554 28.0769 65.3996 27.6603 64.5568C27.2483 63.714 27.0424 62.7292 27.0424 61.6023C27.0424 60.4659 27.2483 59.474 27.6603 58.6264C28.0769 57.7789 28.6546 57.1207 29.3932 56.652C30.1366 56.1832 31.0007 55.9489 31.9855 55.9489C32.9704 55.9489 33.8321 56.1832 34.5708 56.652C35.3141 57.1207 35.8918 57.7789 36.3037 58.6264C36.7204 59.474 36.9287 60.4659 36.9287 61.6023C36.9287 62.7292 36.7204 63.714 36.3037 64.5568C35.8918 65.3996 35.3141 66.0554 34.5708 66.5241C33.8321 66.9929 32.9704 67.2273 31.9855 67.2273ZM31.9855 65.7216C32.7336 65.7216 33.3492 65.5298 33.8321 65.1463C34.3151 64.7628 34.6726 64.2585 34.9046 63.6335C35.1366 63.0085 35.2526 62.3314 35.2526 61.6023C35.2526 60.8731 35.1366 60.1937 34.9046 59.5639C34.6726 58.9342 34.3151 58.4252 33.8321 58.0369C33.3492 57.6487 32.7336 57.4545 31.9855 57.4545C31.2374 57.4545 30.6219 57.6487 30.1389 58.0369C29.656 58.4252 29.2985 58.9342 29.0665 59.5639C28.8345 60.1937 28.7185 60.8731 28.7185 61.6023C28.7185 62.3314 28.8345 63.0085 29.0665 63.6335C29.2985 64.2585 29.656 64.7628 30.1389 65.1463C30.6219 65.5298 31.2374 65.7216 31.9855 65.7216ZM41.1635 60.4375V67H39.4873V56.0909H41.1066V57.7955H41.2487C41.5044 57.2415 41.8926 56.7964 42.4135 56.4602C42.9343 56.1193 43.6066 55.9489 44.4305 55.9489C45.1691 55.9489 45.8154 56.1004 46.3694 56.4034C46.9234 56.7017 47.3543 57.1562 47.662 57.767C47.9698 58.3731 48.1237 59.1402 48.1237 60.0682V67H46.4475V60.1818C46.4475 59.3248 46.225 58.6572 45.7799 58.179C45.3349 57.696 44.7241 57.4545 43.9475 57.4545C43.4125 57.4545 42.9343 57.5705 42.5129 57.8026C42.0962 58.0346 41.7671 58.3731 41.5257 58.8182C41.2842 59.2633 41.1635 59.803 41.1635 60.4375ZM55.6184 67.2273C54.6335 67.2273 53.7694 66.9929 53.026 66.5241C52.2874 66.0554 51.7097 65.3996 51.2931 64.5568C50.8811 63.714 50.6752 62.7292 50.6752 61.6023C50.6752 60.4659 50.8811 59.474 51.2931 58.6264C51.7097 57.7789 52.2874 57.1207 53.026 56.652C53.7694 56.1832 54.6335 55.9489 55.6184 55.9489C56.6032 55.9489 57.4649 56.1832 58.2036 56.652C58.947 57.1207 59.5246 57.7789 59.9365 58.6264C60.3532 59.474 60.5615 60.4659 60.5615 61.6023C60.5615 62.7292 60.3532 63.714 59.9365 64.5568C59.5246 65.3996 58.947 66.0554 58.2036 66.5241C57.4649 66.9929 56.6032 67.2273 55.6184 67.2273ZM55.6184 65.7216C56.3665 65.7216 56.982 65.5298 57.4649 65.1463C57.9479 64.7628 58.3054 64.2585 58.5374 63.6335C58.7694 63.0085 58.8854 62.3314 58.8854 61.6023C58.8854 60.8731 58.7694 60.1937 58.5374 59.5639C58.3054 58.9342 57.9479 58.4252 57.4649 58.0369C56.982 57.6487 56.3665 57.4545 55.6184 57.4545C54.8702 57.4545 54.2547 57.6487 53.7718 58.0369C53.2888 58.4252 52.9313 58.9342 52.6993 59.5639C52.4673 60.1937 52.3513 60.8731 52.3513 61.6023C52.3513 62.3314 52.4673 63.0085 52.6993 63.6335C52.9313 64.2585 53.2888 64.7628 53.7718 65.1463C54.2547 65.5298 54.8702 65.7216 55.6184 65.7216ZM72.8644 67.2273C71.9554 67.2273 71.1528 66.9976 70.4568 66.5384C69.7608 66.0743 69.2162 65.4209 68.8233 64.5781C68.4303 63.7306 68.2338 62.7292 68.2338 61.5739C68.2338 60.428 68.4303 59.4337 68.8233 58.5909C69.2162 57.7481 69.7631 57.0971 70.4639 56.6378C71.1646 56.1785 71.9743 55.9489 72.8929 55.9489C73.6031 55.9489 74.1642 56.0672 74.5761 56.304C74.9928 56.536 75.31 56.8011 75.5278 57.0994C75.7503 57.393 75.9232 57.6345 76.0463 57.8239H76.1883V52.4545H77.8644V67H76.2451V65.3239H76.0463C75.9232 65.5227 75.748 65.7737 75.5207 66.0767C75.2934 66.375 74.9691 66.6425 74.5477 66.8793C74.1263 67.1113 73.5652 67.2273 72.8644 67.2273ZM73.0917 65.7216C73.7641 65.7216 74.3322 65.5464 74.7963 65.196C75.2603 64.8409 75.613 64.3509 75.8545 63.7259C76.096 63.0961 76.2167 62.3693 76.2167 61.5455C76.2167 60.7311 76.0983 60.0185 75.8616 59.4077C75.6249 58.7921 75.2745 58.3139 74.8105 57.973C74.3465 57.6274 73.7735 57.4545 73.0917 57.4545C72.3815 57.4545 71.7896 57.6368 71.3162 58.0014C70.8474 58.3613 70.4947 58.8513 70.2579 59.4716C70.0259 60.0871 69.9099 60.7784 69.9099 61.5455C69.9099 62.322 70.0283 63.0275 70.265 63.6619C70.5065 64.2917 70.8616 64.7936 71.3304 65.1676C71.8038 65.5369 72.391 65.7216 73.0917 65.7216ZM85.7409 67.2273C84.6897 67.2273 83.783 66.9953 83.0207 66.5312C82.2631 66.0625 81.6784 65.4091 81.2664 64.571C80.8592 63.7282 80.6556 62.7481 80.6556 61.6307C80.6556 60.5133 80.8592 59.5284 81.2664 58.6761C81.6784 57.8191 82.2513 57.1515 82.9852 56.6733C83.7238 56.1903 84.5856 55.9489 85.5704 55.9489C86.1386 55.9489 86.6997 56.0436 87.2537 56.233C87.8076 56.4223 88.3119 56.7301 88.7664 57.1562C89.221 57.5777 89.5832 58.1364 89.8531 58.8324C90.123 59.5284 90.2579 60.3854 90.2579 61.4034V62.1136H81.8488V60.6648H88.5534C88.5534 60.0492 88.4303 59.5 88.184 59.017C87.9426 58.5341 87.5969 58.1529 87.1471 57.8736C86.702 57.5942 86.1765 57.4545 85.5704 57.4545C84.9028 57.4545 84.3251 57.6203 83.8375 57.9517C83.3545 58.2784 82.9828 58.7045 82.7224 59.2301C82.462 59.7557 82.3318 60.3191 82.3318 60.9205V61.8864C82.3318 62.7102 82.4738 63.4086 82.7579 63.9815C83.0467 64.5497 83.4468 64.983 83.9582 65.2812C84.4696 65.5748 85.0638 65.7216 85.7409 65.7216C86.1812 65.7216 86.5789 65.66 86.934 65.5369C87.2939 65.4091 87.604 65.2197 87.8644 64.9688C88.1249 64.7131 88.3261 64.3958 88.4681 64.017L90.0875 64.4716C89.917 65.0208 89.6305 65.5038 89.2281 65.9205C88.8256 66.3324 88.3285 66.6544 87.7366 66.8864C87.1447 67.1136 86.4795 67.2273 85.7409 67.2273ZM10.2863 91L6.30904 76.4545H8.09881L11.1386 88.3011H11.2806L14.3772 76.4545H16.3659L19.4625 88.3011H19.6045L22.6443 76.4545H24.434L20.4568 91H18.6386L15.4284 79.4091H15.3147L12.1045 91H10.2863ZM28.0775 84.4375V91H26.4014V76.4545H28.0775V81.7955H28.2196C28.4752 81.232 28.8588 80.7846 29.3701 80.4531C29.8862 80.117 30.5728 79.9489 31.4298 79.9489C32.1732 79.9489 32.8242 80.098 33.3829 80.3963C33.9416 80.6899 34.3749 81.142 34.6826 81.7528C34.9951 82.3589 35.1514 83.1307 35.1514 84.0682V91H33.4752V84.1818C33.4752 83.3153 33.2503 82.6454 32.8005 82.1719C32.3555 81.6937 31.7376 81.4545 30.9468 81.4545C30.3976 81.4545 29.9052 81.5705 29.4696 81.8026C29.0387 82.0346 28.6978 82.3731 28.4468 82.8182C28.2006 83.2633 28.0775 83.803 28.0775 84.4375ZM41.428 91.2557C40.7367 91.2557 40.1094 91.1255 39.5459 90.8651C38.9825 90.5999 38.535 90.2188 38.2036 89.7216C37.8721 89.2197 37.7064 88.6136 37.7064 87.9034C37.7064 87.2784 37.8295 86.7718 38.0757 86.3835C38.322 85.9905 38.651 85.6828 39.063 85.4602C39.4749 85.2377 39.9294 85.072 40.4266 84.9631C40.9285 84.8494 41.4327 84.7595 41.9394 84.6932C42.6023 84.608 43.1397 84.544 43.5516 84.5014C43.9683 84.4541 44.2713 84.3759 44.4607 84.267C44.6548 84.1581 44.7519 83.9687 44.7519 83.6989V83.642C44.7519 82.9413 44.5601 82.3968 44.1766 82.0085C43.7978 81.6203 43.2225 81.4261 42.4507 81.4261C41.6505 81.4261 41.0232 81.6013 40.5686 81.9517C40.1141 82.3021 39.7945 82.6761 39.6098 83.0739L38.0189 82.5057C38.303 81.8428 38.6818 81.3267 39.1553 80.9574C39.6335 80.5833 40.1543 80.3229 40.7178 80.1761C41.286 80.0246 41.8447 79.9489 42.3939 79.9489C42.7443 79.9489 43.1468 79.9915 43.6013 80.0767C44.0606 80.1572 44.5033 80.3253 44.9294 80.581C45.3603 80.8366 45.7178 81.2225 46.0019 81.7386C46.286 82.2547 46.428 82.946 46.428 83.8125V91H44.7519V89.5227H44.6666C44.553 89.7595 44.3636 90.0128 44.0985 90.2827C43.8333 90.5526 43.4806 90.7822 43.0402 90.9716C42.5999 91.161 42.0625 91.2557 41.428 91.2557ZM41.6837 89.75C42.3466 89.75 42.9053 89.6198 43.3598 89.3594C43.8191 89.099 44.1648 88.7628 44.3968 88.3509C44.6335 87.9389 44.7519 87.5057 44.7519 87.0511V85.517C44.6809 85.6023 44.5246 85.6804 44.2831 85.7514C44.0464 85.8177 43.7718 85.8769 43.4593 85.929C43.1515 85.9763 42.8508 86.0189 42.5573 86.0568C42.2684 86.09 42.0341 86.1184 41.8541 86.142C41.4185 86.1989 41.0113 86.2912 40.6326 86.419C40.2585 86.5421 39.9555 86.7292 39.7235 86.9801C39.4962 87.2263 39.3826 87.5625 39.3826 87.9886C39.3826 88.571 39.598 89.0114 40.0289 89.3097C40.4645 89.6032 41.0161 89.75 41.6837 89.75ZM54.2316 80.0909V81.5114H48.5782V80.0909H54.2316ZM50.226 77.4773H51.9021V87.875C51.9021 88.3485 51.9707 88.7036 52.1081 88.9403C52.2501 89.1723 52.43 89.3286 52.6478 89.4091C52.8704 89.4848 53.1047 89.5227 53.351 89.5227C53.5356 89.5227 53.6871 89.5133 53.8055 89.4943C53.9239 89.4706 54.0186 89.4517 54.0896 89.4375L54.4305 90.9432C54.3169 90.9858 54.1582 91.0284 53.9546 91.071C53.751 91.1184 53.493 91.142 53.1805 91.142C52.707 91.142 52.243 91.0402 51.7885 90.8366C51.3386 90.633 50.9646 90.3229 50.6663 89.9062C50.3727 89.4896 50.226 88.964 50.226 88.3295V77.4773ZM64.2849 82.5341L62.7792 82.9602C62.6845 82.7093 62.5448 82.4654 62.3602 82.2287C62.1803 81.9872 61.934 81.7884 61.6215 81.6321C61.309 81.4759 60.909 81.3977 60.4213 81.3977C59.7537 81.3977 59.1973 81.5516 58.7522 81.8594C58.3119 82.1624 58.0917 82.5483 58.0917 83.017C58.0917 83.4337 58.2432 83.7628 58.5463 84.0043C58.8493 84.2457 59.3228 84.447 59.9667 84.608L61.586 85.0057C62.5614 85.2424 63.2882 85.6046 63.7664 86.0923C64.2447 86.5753 64.4838 87.1979 64.4838 87.9602C64.4838 88.5852 64.3038 89.1439 63.944 89.6364C63.5889 90.1288 63.0917 90.517 62.4525 90.8011C61.8133 91.0852 61.0699 91.2273 60.2224 91.2273C59.1097 91.2273 58.1888 90.9858 57.4596 90.5028C56.7305 90.0199 56.2688 89.3144 56.0747 88.3864L57.6656 87.9886C57.8171 88.5758 58.1036 89.0161 58.525 89.3097C58.9511 89.6032 59.5074 89.75 60.194 89.75C60.9752 89.75 61.5955 89.5843 62.0548 89.2528C62.5188 88.9167 62.7508 88.5142 62.7508 88.0455C62.7508 87.6667 62.6182 87.3494 62.3531 87.0938C62.0879 86.8333 61.6807 86.6392 61.1315 86.5114L59.3133 86.0852C58.3143 85.8485 57.5804 85.4815 57.1116 84.9844C56.6476 84.4825 56.4156 83.8551 56.4156 83.1023C56.4156 82.4867 56.5884 81.9422 56.934 81.4688C57.2844 80.9953 57.7603 80.6236 58.3616 80.3537C58.9677 80.0838 59.6542 79.9489 60.4213 79.9489C61.5008 79.9489 62.3483 80.1856 62.9639 80.6591C63.5841 81.1326 64.0245 81.7576 64.2849 82.5341ZM70.2171 91.2557C69.5258 91.2557 68.8984 91.1255 68.335 90.8651C67.7715 90.5999 67.3241 90.2188 66.9926 89.7216C66.6612 89.2197 66.4955 88.6136 66.4955 87.9034C66.4955 87.2784 66.6186 86.7718 66.8648 86.3835C67.111 85.9905 67.4401 85.6828 67.852 85.4602C68.2639 85.2377 68.7185 85.072 69.2157 84.9631C69.7175 84.8494 70.2218 84.7595 70.7284 84.6932C71.3913 84.608 71.9287 84.544 72.3407 84.5014C72.7573 84.4541 73.0604 84.3759 73.2497 84.267C73.4439 84.1581 73.5409 83.9687 73.5409 83.6989V83.642C73.5409 82.9413 73.3492 82.3968 72.9657 82.0085C72.5869 81.6203 72.0116 81.4261 71.2398 81.4261C70.4396 81.4261 69.8122 81.6013 69.3577 81.9517C68.9032 82.3021 68.5836 82.6761 68.3989 83.0739L66.808 82.5057C67.0921 81.8428 67.4709 81.3267 67.9443 80.9574C68.4226 80.5833 68.9434 80.3229 69.5068 80.1761C70.075 80.0246 70.6337 79.9489 71.183 79.9489C71.5334 79.9489 71.9358 79.9915 72.3904 80.0767C72.8497 80.1572 73.2924 80.3253 73.7185 80.581C74.1494 80.8366 74.5068 81.2225 74.7909 81.7386C75.075 82.2547 75.2171 82.946 75.2171 83.8125V91H73.5409V89.5227H73.4557C73.3421 89.7595 73.1527 90.0128 72.8875 90.2827C72.6224 90.5526 72.2696 90.7822 71.8293 90.9716C71.3889 91.161 70.8515 91.2557 70.2171 91.2557ZM70.4728 89.75C71.1356 89.75 71.6943 89.6198 72.1489 89.3594C72.6082 89.099 72.9538 88.7628 73.1858 88.3509C73.4226 87.9389 73.5409 87.5057 73.5409 87.0511V85.517C73.4699 85.6023 73.3137 85.6804 73.0722 85.7514C72.8354 85.8177 72.5608 85.8769 72.2483 85.929C71.9406 85.9763 71.6399 86.0189 71.3463 86.0568C71.0575 86.09 70.8231 86.1184 70.6432 86.142C70.2076 86.1989 69.8004 86.2912 69.4216 86.419C69.0476 86.5421 68.7445 86.7292 68.5125 86.9801C68.2853 87.2263 68.1716 87.5625 68.1716 87.9886C68.1716 88.571 68.3871 89.0114 68.8179 89.3097C69.2535 89.6032 69.8051 89.75 70.4728 89.75ZM78.2764 95.0909V80.0909H79.8957V81.8239H80.0946C80.2177 81.6345 80.3881 81.393 80.6059 81.0994C80.8285 80.8011 81.1457 80.536 81.5576 80.304C81.9743 80.0672 82.5377 79.9489 83.248 79.9489C84.1665 79.9489 84.9762 80.1785 85.6769 80.6378C86.3777 81.0971 86.9246 81.7481 87.3176 82.5909C87.7106 83.4337 87.9071 84.428 87.9071 85.5739C87.9071 86.7292 87.7106 87.7306 87.3176 88.5781C86.9246 89.4209 86.3801 90.0743 85.684 90.5384C84.988 90.9976 84.1855 91.2273 83.2764 91.2273C82.5756 91.2273 82.0145 91.1113 81.5931 90.8793C81.1717 90.6425 80.8474 90.375 80.6201 90.0767C80.3929 89.7737 80.2177 89.5227 80.0946 89.3239H79.9525V95.0909H78.2764ZM79.9241 85.5455C79.9241 86.3693 80.0448 87.0961 80.2863 87.7259C80.5278 88.3509 80.8805 88.8409 81.3446 89.196C81.8086 89.5464 82.3768 89.7216 83.0491 89.7216C83.7499 89.7216 84.3346 89.5369 84.8034 89.1676C85.2769 88.7936 85.632 88.2917 85.8687 87.6619C86.1102 87.0275 86.2309 86.322 86.2309 85.5455C86.2309 84.7784 86.1126 84.0871 85.8758 83.4716C85.6438 82.8513 85.2911 82.3613 84.8176 82.0014C84.3488 81.6368 83.7593 81.4545 83.0491 81.4545C82.3673 81.4545 81.7944 81.6274 81.3304 81.973C80.8663 82.3139 80.516 82.7921 80.2792 83.4077C80.0425 84.0185 79.9241 84.7311 79.9241 85.5455ZM90.4639 95.0909V80.0909H92.0832V81.8239H92.2821C92.4052 81.6345 92.5756 81.393 92.7934 81.0994C93.016 80.8011 93.3332 80.536 93.7451 80.304C94.1618 80.0672 94.7252 79.9489 95.4355 79.9489C96.354 79.9489 97.1637 80.1785 97.8644 80.6378C98.5652 81.0971 99.1121 81.7481 99.5051 82.5909C99.8981 83.4337 100.094 84.428 100.094 85.5739C100.094 86.7292 99.8981 87.7306 99.5051 88.5781C99.1121 89.4209 98.5676 90.0743 97.8715 90.5384C97.1755 90.9976 96.373 91.2273 95.4639 91.2273C94.7631 91.2273 94.202 91.1113 93.7806 90.8793C93.3592 90.6425 93.0349 90.375 92.8076 90.0767C92.5804 89.7737 92.4052 89.5227 92.2821 89.3239H92.14V95.0909H90.4639ZM92.1116 85.5455C92.1116 86.3693 92.2323 87.0961 92.4738 87.7259C92.7153 88.3509 93.068 88.8409 93.5321 89.196C93.9961 89.5464 94.5643 89.7216 95.2366 89.7216C95.9374 89.7216 96.5221 89.5369 96.9909 89.1676C97.4644 88.7936 97.8195 88.2917 98.0562 87.6619C98.2977 87.0275 98.4184 86.322 98.4184 85.5455C98.4184 84.7784 98.3001 84.0871 98.0633 83.4716C97.8313 82.8513 97.4786 82.3613 97.0051 82.0014C96.5363 81.6368 95.9468 81.4545 95.2366 81.4545C94.5548 81.4545 93.9819 81.6274 93.5179 81.973C93.0538 82.3139 92.7035 82.7921 92.4667 83.4077C92.23 84.0185 92.1116 84.7311 92.1116 85.5455Z" fill="white"/>
<path d="M106 188.5C106 165.028 86.9721 146 63.5 146C40.0279 146 21 165.028 21 188.5C21 211.972 40.0279 231 63.5 231C86.9721 231 106 211.972 106 188.5Z" fill="#33BB47"/>
<path d="M83.5265 168.287C80.8559 165.649 77.6751 163.557 74.1697 162.134C70.6642 160.712 66.9043 159.986 63.1092 160C47.2073 160 34.2476 172.676 34.233 188.236C34.233 193.22 35.5658 198.069 38.082 202.362L34 217L49.3084 213.074C53.5414 215.334 58.2871 216.516 63.1092 216.512H63.1238C79.0294 216.512 91.9854 203.837 92 188.261C92.0032 184.55 91.2559 180.874 89.801 177.445C88.3461 174.017 86.2161 170.905 83.5265 168.287ZM63.1092 211.731C58.8094 211.728 54.5892 210.596 50.8887 208.454L50.0148 207.941L40.9332 210.27L43.3584 201.603L42.7903 200.709C40.3863 196.969 39.1149 192.64 39.1234 188.222C39.1234 175.305 49.891 164.767 63.1238 164.767C66.2763 164.761 69.3987 165.366 72.3111 166.547C75.2235 167.728 77.8681 169.461 80.0927 171.646C82.3245 173.823 84.0938 176.411 85.2987 179.26C86.5037 182.109 87.1203 185.164 87.1133 188.247C87.0987 201.211 76.3311 211.731 63.1092 211.731ZM76.2728 194.154C75.5555 193.801 72.0124 192.095 71.346 191.852C70.6833 191.621 70.199 191.5 69.7256 192.205C69.2413 192.907 67.8576 194.506 67.4425 194.966C67.0274 195.44 66.5977 195.493 65.8767 195.144C65.1593 194.788 62.8325 194.047 60.0796 191.635C57.9312 189.765 56.4928 187.449 56.0632 186.747C55.648 186.042 56.0231 185.664 56.3836 185.312C56.7004 184.998 57.1009 184.485 57.4614 184.079C57.8256 183.673 57.9458 183.374 58.1824 182.903C58.4191 182.426 58.3062 182.02 58.1278 181.667C57.9458 181.315 56.5074 177.834 55.8993 176.43C55.3167 175.045 54.7231 175.237 54.2789 175.219C53.8638 175.194 53.3795 175.194 52.8952 175.194C52.5295 175.203 52.1696 175.286 51.8382 175.438C51.5067 175.589 51.2108 175.806 50.9689 176.074C50.3061 176.78 48.4527 178.486 48.4527 181.966C48.4527 185.447 51.038 188.792 51.4022 189.266C51.759 189.74 56.4783 196.861 63.721 199.925C65.4324 200.655 66.7798 201.086 67.8321 201.414C69.5618 201.956 71.1239 201.874 72.3693 201.699C73.753 201.492 76.6333 199.989 77.2415 198.34C77.8386 196.687 77.8386 195.276 77.6566 194.98C77.4781 194.681 76.9938 194.506 76.2728 194.154Z" fill="#FAFAFA"/>
<path d="M54.3082 143.722C54.7071 144.104 55.3402 144.09 55.7221 143.692L61.9463 137.191C62.3282 136.792 62.3144 136.159 61.9155 135.777C61.5166 135.395 60.8836 135.409 60.5016 135.808L54.9691 141.586L49.1906 136.054C48.7917 135.672 48.1587 135.685 47.7767 136.084C47.3948 136.483 47.4085 137.116 47.8075 137.498L54.3082 143.722ZM53 97.0219L54 143.022L55.9996 142.978L54.9996 96.9785L53 97.0219Z" fill="white"/>
<path d="M144.804 147V141.886L164.009 120.864C166.262 118.402 168.118 116.261 169.577 114.443C171.035 112.606 172.115 110.883 172.815 109.273C173.535 107.644 173.895 105.939 173.895 104.159C173.895 102.114 173.402 100.343 172.418 98.8466C171.452 97.3504 170.126 96.1951 168.44 95.3807C166.755 94.5663 164.861 94.1591 162.759 94.1591C160.524 94.1591 158.573 94.6231 156.906 95.5511C155.259 96.4602 153.98 97.7386 153.071 99.3864C152.181 101.034 151.736 102.966 151.736 105.182H145.031C145.031 101.773 145.817 98.7803 147.389 96.2045C148.961 93.6288 151.101 91.6212 153.81 90.1818C156.537 88.7424 159.596 88.0227 162.986 88.0227C166.395 88.0227 169.416 88.7424 172.048 90.1818C174.681 91.6212 176.745 93.5625 178.241 96.0057C179.738 98.4489 180.486 101.167 180.486 104.159C180.486 106.299 180.098 108.392 179.321 110.438C178.563 112.464 177.238 114.727 175.344 117.227C173.469 119.708 170.865 122.739 167.531 126.318L154.463 140.295V140.75H181.509V147H144.804Z" fill="#F8F9FA"/>
<path d="M212.5 119C212.5 146.338 190.338 168.5 163 168.5C135.662 168.5 113.5 146.338 113.5 119C113.5 91.6619 135.662 69.5 163 69.5C190.338 69.5 212.5 91.6619 212.5 119Z" stroke="#F8F9FA"/>
</svg>
